<?xml version="1.0" encoding="UTF-8"?>
<svg width="223px" height="223px" viewBox="0 0 223 223" version="1.1" xmlns="http://www.w3.org/2000/svg" xmlns:xlink="http://www.w3.org/1999/xlink" style="background: #01AEF9;">
    <!-- Generator: Sketch 47.1 (45422) - http://www.bohemiancoding.com/sketch -->
    <title>Artboard</title>
    <desc>Created with Sketch.</desc>
    <defs></defs>
    <g id="Page-1" stroke="none" stroke-width="1" fill="none" fill-rule="evenodd">
        <g id="Artboard" fill-rule="nonzero" fill="#FFFFFF">
            <g id="private" transform="translate(80.000000, 52.000000)">
                <path d="M63.5076923,110 L53.6615385,110 L53.6615385,66.7857143 C53.6615385,64.3303571 51.6923077,61.875 47.7538462,59.9107143 C43.8153846,57.9464286 37.9076923,56.9642857 32,56.9642857 C21.1692308,56.9642857 9.84615385,60.4017857 9.84615385,66.7857143 L9.84615385,109.508929 L0,109.508929 L0,66.7857143 C0,53.5267857 16.7384615,47.1428571 32,47.1428571 C47.2615385,47.1428571 64,53.5267857 64,66.7857143 L64,110 L63.5076923,110 L63.5076923,110 Z M32,42.2321429 C20.1846154,42.2321429 10.8307692,32.9017857 10.8307692,21.1160714 C10.8307692,9.33035714 20.1846154,0 32,0 C43.8153846,0 52.6769231,9.33035714 52.6769231,21.1160714 C52.6769231,32.9017857 43.3230769,42.2321429 32,42.2321429 Z M32,9.82142857 C25.6,9.82142857 20.6769231,14.7321429 20.6769231,21.1160714 C20.6769231,27.5 25.6,32.4107143 32,32.4107143 C38.4,32.4107143 42.8307692,27.5 42.8307692,21.1160714 C42.8307692,14.7321429 37.9076923,9.82142857 32,9.82142857 Z" id="Layer_1_1_"></path>
            </g>
        </g>
    </g>
</svg>