<svg xmlns="http://www.w3.org/2000/svg" viewBox="0 0 2857.3 2857.3"><path d="M2750.2 1428.7c0 729.8-591.7 1321.5-1321.5 1321.5-729.9 0-1321.5-591.7-1321.5-1321.5 0-729.9 591.7-1321.5 1321.5-1321.5 729.8-.1 1321.5 591.6 1321.5 1321.5zm107.1 0c0 789-639.6 1428.7-1428.7 1428.7C639.6 2857.3 0 2217.7 0 1428.7 0 639.6 639.6 0 1428.7 0c789 0 1428.6 639.6 1428.6 1428.7zM1168.9 714.3h467.6v224.1h363.7v112.1h-155.9L1797.5 2143h-727.3l-52-1092.5h-161V938.4h311.7V714.3zm363.7 112.1h-259.8v112.1h259.8V826.4zm-410.5 224.1l41.6 980.5h529.9l46.8-980.5h-618.3zm124.4 109.6l103.8-5.6 31.6 682.7-103.8 5.6-31.6-682.7zm266.4-3.1l-31.6 682.7 103.8 5.6 31.6-682.7-103.8-5.6z" fill-rule="evenodd" clip-rule="evenodd" fill="#6a6a6a"/></svg>
