<svg xmlns="http://www.w3.org/2000/svg" viewBox="0 0 2857.3 2857.3"><path d="M1288.9 2118.5l-717.4-727L701.9 1261l596.3 596.5 857.2-857.4 130.4 130.5-996.9 987.9z" fill="#6a6a6a"/><path d="M1428.7 2750.2c729.8 0 1321.5-591.7 1321.5-1321.5S2158.5 107.2 1428.7 107.2c-729.9 0-1321.5 591.7-1321.5 1321.5-.1 729.8 591.6 1321.5 1321.5 1321.5zm0 107.1c789 0 1428.7-639.6 1428.7-1428.7C2857.3 639.6 2217.7 0 1428.7 0 639.6 0 0 639.6 0 1428.7c0 789 639.6 1428.6 1428.7 1428.6z" fill-rule="evenodd" clip-rule="evenodd" fill="#6a6a6a"/></svg>
