<svg xmlns="http://www.w3.org/2000/svg" viewBox="0 0 2857.3 2857.3"><path d="M1428.7 2857.3C640.9 2857.3 0 2216.4 0 1428.7S640.9 0 1428.7 0s1428.7 640.9 1428.7 1428.7-641 1428.6-1428.7 1428.6zm0-2754c-730.8 0-1325.4 594.6-1325.4 1325.4 0 730.9 594.6 1325.4 1325.4 1325.4 730.9 0 1325.4-594.5 1325.4-1325.4-.1-730.8-594.6-1325.4-1325.4-1325.4zm558.6 1997.2L1428.7 1480l-558.5 620.5-76.8-69.1 565.8-628.6-611.4-679.3 76.8-69.1 604.1 671.2 604.1-671.2 76.7 69.1-611.3 679.2 565.8 628.6-76.7 69.2z" fill="#6a6a6a"/></svg>
