<svg xmlns="http://www.w3.org/2000/svg" data-name="Layer 1" viewBox="0 0 1008 1008"><path d="M504 1008C226.37 1008 0 781.63 0 504S226.4 0 504 0s504 226.37 504 504-226.37 504-504 504zm0-967.42C249.86 40.58 40.58 249.86 40.58 504S249.86 967.4 504 967.4 967.4 758.14 967.4 504 760.27 40.58 504 40.58z"/><path d="M508.27 245.59l64.07 149.49 8.54 19.23 23.52 4.27 160.17 17.08-121.76 104.65-17.08 12.81 4.27 23.49 36.31 160.17L525.4 651.4l-17.09-10.68-19.22 12.81-140.99 85.39 36.3-160.17 4.27-23.5-17.08-12.85-121.73-104.6 160.17-17.09 23.5-4.27 8.54-19.22 66.2-151.63zm0-104.64L405.76 373.73 149.49 399.4l192.2 164.4-55.52 258.4 222.1-132.4L730.4 822.2l-55.55-254.13 192.2-164.44-258.41-23.49-100.37-239.19z"/></svg>
