<svg xmlns="http://www.w3.org/2000/svg" id="Layer_1" viewBox="0 0 1008 1008"><style>.st0{fill:#022f51}</style><path class="st0" d="M504 0C227.6 0 1.5 226.1 1.5 502.5S227.6 1005 504 1005s502.5-226.1 502.5-502.5S780.4 0 504 0zm263.9 768.9H240.1v-53.7H768v53.7zm-457.2-106V439.7h53.7v223.2h-53.7zm110.7 0V439.7h53.7v223.2h-53.7zm111.5 0V439.7h53.7v223.2h-53.7zm110.8 0V439.7h53.7v223.2h-53.7zM213.4 388.8l289.8-246.9 291.5 246.9H213.4z"/><path class="st0" d="M646.5 334.5L503.3 213.2 360.9 334.5z"/></svg>
