<svg xmlns="http://www.w3.org/2000/svg" viewBox="0 0 30 30" fill="none"><circle cx="15" cy="15" r="14.5" stroke="#0062BA"/><path fill-rule="evenodd" clip-rule="evenodd" d="M4.304 18.4l1.83-1.83c.44.362.94.748 1.49 1.129l-1.446 2.25 1.303.895 1.516-2.273c.497.285 1.018.553 1.559.787l-.712 2.627 1.63.408.668-2.468a9.53 9.53 0 0 0 1.695.316V22.8h1.63v-2.577a9.573 9.573 0 0 0 1.53-.306l.67 2.476 1.63-.408-.716-2.64c.53-.232 1.044-.496 1.534-.776l1.463 2.275 1.385-.896-1.453-2.26a23.35 23.35 0 0 0 1.493-1.122l1.834 1.834 1.304-1.385L22.963 14l-.011.164c-1.518 1.344-4.95 4.236-8.382 4.236-3.422 0-7.007-3.015-8.392-4.4L3 17.096 4.304 18.4z" fill="#0062BA"/></svg>
