<svg xmlns="http://www.w3.org/2000/svg" viewBox="0 0 30 30" fill="none"><path fill-rule="evenodd" clip-rule="evenodd" d="M15 29c7.732 0 14-6.268 14-14S22.732 1 15 1 1 7.268 1 15s6.268 14 14 14zm0 1c8.284 0 15-6.716 15-15 0-8.284-6.716-15-15-15C6.716 0 0 6.716 0 15c0 8.284 6.716 15 15 15z" fill="#0062BA"/><path d="M8.313 13.133h-.82V11.89h.82v-1.07c0-.771.213-1.34.64-1.704.417-.338.94-.508 1.57-.508h1.055v1.54h-.93c-.49-.016-.724.208-.703.671v1.07h1.633v1.243H9.945V20H8.312v-6.867zM14.066 21.225c-1.261-1.512-1.892-3.141-1.892-4.887 0-1.75.63-3.377 1.892-4.881h.48a10.852 10.852 0 0 0-1.148 4.88c.008 1.747.391 3.376 1.149 4.888h-.48zM14.998 13.918h1.465l1.207 1.969 1.213-1.969h1.465l-1.992 2.977L20.43 20h-1.46l-1.3-2.027L16.375 20H14.91l2.08-3.105-1.992-2.977zM21.28 11.457c1.261 1.504 1.892 3.13 1.892 4.88 0 1.747-.631 3.376-1.893 4.888h-.48c.75-1.512 1.135-3.141 1.154-4.887a11.12 11.12 0 0 0-1.154-4.881h.48z" fill="#0062BA"/></svg>
