<?xml version="1.0" encoding="UTF-8"?>
<svg width="332px" height="332px" viewBox="0 0 332 332" version="1.1" xmlns="http://www.w3.org/2000/svg" xmlns:xlink="http://www.w3.org/1999/xlink">
    <title>illustrasjon_nyhetsbrev</title>
    <defs>
        <circle id="path-1" cx="165.92" cy="165.92" r="165.92"></circle>
    </defs>
    <g id="Page-1" stroke="none" stroke-width="1" fill="none" fill-rule="evenodd">
        <g id="illustrasjon_nyhetsbrev">
            <mask id="mask-2" fill="white">
                <use xlink:href="#path-1"></use>
            </mask>
            <g id="Oval"></g>
            <g id="illustrasjon_nyhetsbrev-copy" mask="url(#mask-2)" fill-rule="nonzero">
                <g transform="translate(-277.000000, -54.000000)">
                    <rect id="Rectangle" fill="#CFF0FF" x="195.4" y="0.8" width="480.7" height="324"></rect>
                    <path d="M20.6,214.7 C24.8,207.2 29.6,200.1 35.3,193.6 C44.1,183.5 54.7,175.1 65.6,167.3 C76.9,159.3 88.9,151.8 102.3,147.8 C111.1,145.2 120.5,144.2 129.6,145.8 C139.1,147.4 142.4,150.3 147.6,157.9 C162.2,179.7 168.5,208.2 213.1,195 C269,178.4 246.9,223 322,242.3 C393.5,199.4 453,207.5 478.7,222.7 C500.5,235.6 517.3,255.8 525.2,264.3 C534.4,274.1 544.2,280.2 551.3,281 C564.4,282.4 576.3,279.8 588.5,277.4 C598.6,275.4 608.8,274.3 619.1,274.2 C642.5,274.1 665.7,280.8 684.1,295.9 C691.7,302.1 701.2,316.9 705.2,323.8 L691.2,399.6 L510.7,422.8 C500.4,422.5 490.1,422.1 479.8,421.8 C414.1,419.7 348.5,417.6 282.8,415.5 C238.6,414.1 194.3,412.7 150.1,411.3 C127.6,410.6 105,409.9 82.5,409.2 C62.6,408.6 43.4,391.4 28.6,379 C23.2,374.5 17.9,369.8 14,364.1 C9,356.8 6.4,348.1 4.5,339.4 C-1.7,311.1 -1.3,281.4 5.6,253.3 C9.1,239.8 13.9,226.7 20.6,214.7 Z" id="Path" fill="#FFFFFF"></path>
                    <polygon id="Path" fill="#EFEFEF" points="205.8 441.9 383.3 454.1 387.6 306.3 383.3 294.6 205.8 294.6"></polygon>
                    <polygon id="Path" fill="#CFF0FF" points="383.3 294.6 428.8 323.8 428.8 343.2 383.3 343.2"></polygon>
                    <path d="M370,351.9 C369.6,348.2 369.3,344.6 369.3,341 C369.3,338.3 369.2,338.2 365.2,338.2 C362.3,338.2 326.7,338.2 312.7,338.4 C307.2,338.5 304.1,338.2 302.9,339.2 C301.3,340.7 301.5,342.2 301.4,344.1 C301.2,346.8 301.5,354.2 301.7,355.1 C302,356.2 303,356.6 303.7,356.6 C306.8,356.6 355.5,374 365,357.1 C365.5,356.2 366.5,357.3 367.5,356.9 C369.4,356.1 370.1,353.7 370,351.9 Z" id="Path" fill="#0062BA"></path>
                    <path d="M309.9,364.4 C309.9,364.1 310,363.7 310.1,363.5 C310.4,363.1 310.9,363 311.4,362.9 C315.5,362.7 338.9,362.5 340.2,362.6 C341.5,362.7 341.6,363.1 341.6,363.6 C341.6,364.1 341.6,435 341.6,435 C335.1,435.8 328.6,436.2 322.1,436.3 C318.4,436.3 309.7,433.5 309.7,433.5 C309.7,433.5 309.8,365.5 309.9,364.4 Z" id="Path" fill="#6A6A6A"></path>
                    <path d="M347,362.6 C353,362.6 359,362.1 364.9,363.1 C365.6,369.2 366.2,375.3 366.8,381.4 C368.4,399.3 368.9,417.2 368.3,435.1 C361.9,436 355.5,436.3 349.1,436.2 C346.8,436.1 346.1,436.5 346,434.5 C345.8,431 346,427.5 346,424 C346,411.6 346,399.3 346,386.9 C346,380 346,366.6 346.1,363.3 C346.1,362.9 346.3,362.6 347,362.6 Z" id="Path" fill="#6A6A6A"></path>
                    <path d="M678.7,445.8 C668.2,449.5 657.7,453.1 647.1,456.5 C644.1,457.5 640.9,458.5 637.7,458.6 C635.1,458.7 596.9,458.2 596.9,458.4 L596.9,347 L683.6,347 L683.6,347.2 C683.6,353.9 683.6,360.6 683.6,367.4 C683.6,380.3 683.6,393.2 683.6,406.1 C683.6,412.8 683.6,419.4 683.6,426.1 C683.6,429.1 683.6,432.1 683.6,435.1 C683.6,437.8 684.3,442 682.1,444.1 C681.1,444.9 679.9,445.4 678.7,445.8 Z" id="Path" fill="#3F3161"></path>
                    <polygon id="Path" fill="#0062BA" points="428.8 359.9 493.3 366.7 583.5 359.9 583.5 403.7 596.8 403.7 596.8 345.1 437.4 342.5"></polygon>
                    <polygon id="Path" fill="#1EAEF7" points="710.3 323.8 596.8 323.6 428.8 323.8 428.8 359.9 479.1 342.5 713.8 342.5"></polygon>
                    <path d="M682,338.8 L460.6,338.8 L428.8,359.8 C428.8,359.8 475.2,351.1 518.6,350.4 C541.9,350 577.5,353.4 596.8,356.8 C602.8,357.9 615.4,349.9 620.8,349.9 C669,349.9 693.9,349.9 693.9,349.9 L682,338.8 Z" id="Path" fill="#3F3161"></path>
                    <polygon id="Path" fill="#CFF0FF" points="460.6 338.8 438.1 354.7 426.6 341.8 425.7 323.6 433.6 323.6 596.8 323.6 596.8 338.8"></polygon>
                    <path d="M596.8,338.8 L596.8,356.8 L693.9,356.8 C693.9,356.8 695.7,338.4 682.4,338.4 C669.1,338.4 596.8,338.8 596.8,338.8 Z" id="Path" fill="#3F3161"></path>
                    <path d="M435.3,416.9 C438.8,416.8 433.2,425.5 428.8,436.3 C425,445.7 422.6,457.4 422.6,457.4 L458.7,457.2 C458.7,457.2 460.6,438.4 461.4,438.4 C476,437.6 490.5,436.5 505,435.2 C506.4,435.1 507.8,434.9 508.9,434.2 C511.3,432.7 481.6,426.5 484.2,425.3 C512.8,411.8 518,365.7 518,365.7 L518.4,426.8 C518.4,426.8 522.3,431.7 524,434 C525.3,435.8 527.5,436.7 529.6,437.6 C550,445.7 596.7,458.5 596.7,458.5 L596.7,360 C596.7,360 564.4,359.7 551.5,359.7 C537.3,359.7 523.2,359.7 509,359.7 C494.3,359.7 479.6,359.7 464.9,359.7 C454.7,359.7 444.5,359.7 434.3,359.7 C432.4,359.7 430.6,359.7 428.7,359.7 C428.7,374.9 428.6,390.2 428.7,405.4 C428.7,407.5 428.7,409.5 428.6,411.6 C428.5,413.6 428.9,415.8 430.9,416.7 C431.9,417.1 433,417.1 434,417.1 C434.5,416.9 434.9,416.9 435.3,416.9 Z" id="Path" fill="#E23B53"></path>
                    <path d="M281.5,221.5 C275.7,221.6 275.1,227.3 270.2,229.5 C264.8,232 255,231.3 246.7,234.4 C242.5,236 238.6,239.9 235.7,243.6 C230.3,250.4 228.5,255 227.4,263.6 C226.5,270 227.9,275.7 229.3,282.2 C225.7,284.7 216.3,291.5 215.2,304.9 C214.3,316.3 221.6,325.9 227.1,330.6 C232.2,335 238.3,337.3 237.7,342.8 C237.2,347.6 233.4,350.5 231.1,354.4 C229,357.9 227.8,362.3 229.3,366.1 C231,370.5 235,372.1 239,373.6 C243.2,375.2 246.6,379 248.2,383.3 C249.5,386.6 250,390.6 252.8,392.9 C254.1,393.9 255.7,394.4 257.3,394.7 C259,395 260.4,395.7 261.7,396.9 C262.7,397.8 263.7,398.9 264.9,399.6 C267.5,401.1 270.7,400.8 273.6,400.3 C275.4,400 277.3,399.5 279.2,399.5 C281,399.4 282.7,399.7 284.4,400 C288,400.5 291.7,400.1 295,398.5 C299.5,396.4 303,392.6 306.4,388.8 C308.6,386.4 308.1,383.2 308.5,380.2 C309,376.5 309.5,372.8 310,369.1 C310.8,363.9 311.6,358.6 312.5,353.4 C315.8,334.4 326.2,317.1 326.7,311.3 C327.7,299.4 316.8,288.6 319.6,285.4 C342.4,259.7 320.5,220.6 281.5,221.5 Z" id="Path" fill="#0062BA"></path>
                    <path d="M428.8,323.8 C425.5,321.1 416.7,316 405.5,325.1 C403.2,327 400.3,325.4 398.2,324.1 C394.1,321.6 390.9,318.4 385.9,318.2 C381.4,318.1 376.8,319.5 373.4,322.4 C368.6,326.5 366.2,333.3 367.9,339.4 C368.3,341 368.5,341.4 367.2,342.3 C366.1,343 364.8,343.4 363.6,343.8 C361.2,344.7 358.6,345.5 356.6,347.1 C353.8,349.2 352.2,352.6 351.8,356.1 C351.5,359.6 352.4,363.1 354,366.2 C354.6,367.3 355.2,368.4 355.5,369.6 C355.9,371.5 354.9,373.1 353.9,374.6 C352.6,376.5 351.5,378.4 350.8,380.6 C349.5,384.7 349.6,389.2 351.1,393.3 C352.6,397.2 355.4,400.5 358.4,403.4 C359.3,404.2 360.2,405.1 360.6,406.2 C361,407.3 360.1,408.8 359.8,409.9 C357.3,418.4 358.7,424.9 367.5,430.9 C365.5,436.5 363.7,440.2 366.8,444.7 C369.3,448.3 373.9,450.2 378,450.8 C378.5,450.9 379.1,450.9 379.4,451.3 C379.9,451.7 379.9,452.4 380.1,453 C380.8,456 382.6,458.3 385.4,459.5 C388.2,460.6 391.6,459.9 394.3,460 C403.7,460.5 403.4,473.6 403.6,480.9 C403.7,482.8 403.6,485.3 405.1,485.3 C408.9,485.3 413.2,485.5 415.2,485.4 C416.4,485.4 417.7,485.2 418.5,484.4 C419.4,483.5 419.4,482.1 419.4,480.9 C419.4,473.3 419.5,465.6 419.5,458 C419.5,457.6 419.5,457.1 419.7,456.8 C420.2,455.9 421.4,456 422.4,456 C428.5,456 433.9,450.1 433.4,444 C433.1,440.6 431.3,437.1 432.5,433.9 C433.6,431 436.8,429.5 438.8,427.2 C441.1,424.5 441.7,421.1 442.1,417.7 C442.3,415.8 443.1,413.9 442.9,411.9 C442.7,410.1 441,409 441,407.2 C440.9,404.5 441.3,401.9 442.3,399.4 C443.3,396.6 445,394.1 446,391.3 C447.3,387.7 447.6,383.7 446.2,380.2 C444.7,376.7 441.2,374 437.4,374 C440.7,370.9 443.4,367 444.4,362.6 C445.3,358.2 444.2,353.1 440.8,350.1 C439.1,348.6 436.9,347.6 434.9,346.4 C432.9,345.2 431,343.5 430.5,341.2 C430.2,339.8 430.5,338.3 430.7,336.8 C431.7,331.8 433.1,327.3 428.8,323.8 Z" id="Path" fill="#1EAEF7"></path>
                    <path d="M327.5,288.6 C327.4,286 329.7,284 331.3,281.9 C335.2,276.8 338.7,268.6 338.5,262.2 C338,246.1 323.2,241.6 323.2,241.6 C323.2,241.6 325.5,219.6 300.8,215.7 C285.7,213.4 273.3,219.7 267,227.7 C251.1,228.4 244.4,232.8 237.8,241.3 C247.5,232.7 265.2,227.3 278.3,239.4 C281.3,231.1 287.7,228 297.4,229.5 C310.6,231.5 322,249 307.9,265.9 C301.3,273.7 293.6,283.3 291.7,286.3 C310.5,278.1 329.3,292.7 321.9,313.2 C318.1,323.5 306.3,337 304.7,339 C297.9,347.7 301.4,355 313,350.2 C315.6,339.2 320.4,340.7 323.4,338.3 C329.9,333 334.8,323.3 335.4,315.4 C336,307.5 333.7,299.4 329.4,292.7 C328.5,291.4 327.5,290.1 327.5,288.6 Z" id="Path" fill="#1EAEF7"></path>
                    <path d="M623.3,319.7 C621,318.7 618.8,317.8 616.8,316.9 C607.2,312.4 570.5,308.3 560.7,304.4 C551.6,300.8 516.1,287.2 507.9,284.1 C491.5,278.1 475.1,272.3 458.6,266.5 C449.3,263.2 442.4,260.8 433.1,257.6 C428.4,256 423.8,254.3 419.1,252.7 C416.7,251.8 414.3,251 411.8,250.1 C410.6,249.7 401.9,246.6 400.5,245.3 C399.2,244 398.4,242.3 397.6,240.7 C392.6,230.4 386.6,220.6 379.7,211.5 C376.5,207.2 371.4,202.6 366.4,204.8 C363.3,206.2 361.7,209.9 362,213.3 C362.3,216.7 364,219.8 365.9,222.7 C373.1,233.8 382.7,243.4 393.8,250.7 C381.6,251.9 369.7,255.8 359.1,262 C353.3,265.4 347.5,270 346,276.6 C345.7,278 345.6,279.4 346,280.8 C347.2,284.6 352,285.9 355.8,285.1 C359.7,284.3 363,282 366.7,280.7 C374.3,278.1 382.6,280 390.5,279.2 C399.5,278.4 408.1,274.2 414.3,267.6 C415.9,265.9 417.4,264 419.6,263.4 C421.6,262.8 423.8,263.4 425.9,264 C431,265.7 436.2,267.3 441.3,269.1 C445.9,270.7 452.5,271.8 456,275.3 C448.5,275.2 440.5,273.2 434,276.8 C430.9,278.6 428.5,281.4 425.5,283.4 C420.4,286.6 414,286.8 408.6,289.3 C401.7,292.4 396.7,299.3 395.9,306.8 C395.7,309 395.9,311.5 397.6,312.8 C398.4,313.4 399.4,313.7 400.4,313.8 C408.2,314.9 415,308.4 422.6,306.4 C429.9,304.5 438.2,306.7 444.9,303.3 C448.8,301.3 451.5,297.8 454,294.3 C456.5,290.8 458.9,287.1 462.5,284.5 C468.8,279.9 474.8,282.8 481.3,285.1 C479.1,285.8 476.5,287.1 476.5,289.4 C476.6,291.2 478.4,292.4 480.1,293 C482.6,293.8 485.3,293.9 487.9,294 C495,294.4 502,295.7 508.8,297.5 C515.7,299.3 522.5,303.1 529.1,306 C540.5,311.1 552,316.2 563.3,321.5 C580.8,329.7 619.7,342.7 636,353 C650.3,362 665.2,370 680.1,377.9 C685.7,380.9 691.6,384 698,384.3 C696.8,377.4 699.4,370.7 701.1,364.1 C702.7,357.9 704.2,351.6 703.4,345.2 C702.8,340 700.6,335 698.3,330.3 C684.3,301.9 663.1,277.5 649.7,248.8 C642,232.3 636.8,214.2 624.8,200.6 C623.5,199.1 621.4,197.1 619.4,196.7 C617.3,196.3 615,197.9 613.9,199.6 C612.6,201.7 612.3,204.2 612.4,206.6 C612.6,213.8 615.6,220.8 620.5,226 C623.4,229.1 627.1,231.7 629,235.6 C631.1,239.9 629.3,244.9 631.8,249.2 C633.2,251.6 635.3,253.4 637.4,255.3 C647.6,264.7 649.2,277 649.2,277 C649.2,277 640.5,266.9 635.6,265 C633.6,264.2 631.5,263.7 629.5,264.2 C627,264.8 625,267.1 624.3,269.6 C623.6,272.1 624.1,274.9 625.2,277.3 C626,279.1 627.2,280.7 628.6,282.1 C630.7,284.1 633.3,285.5 635.8,286.9 C642.2,290.4 648.6,293.9 655.3,296.8 C660.7,299.1 666.1,301.9 670,306.3 C678,315.2 678.4,325.7 676.6,337 C676.3,339.1 675.8,341.3 674.5,343 C672.8,345.3 670,346.5 667.1,346.9 C655.9,348.7 645.7,340.6 637.9,332.4 C635.4,329.8 633.4,326.1 630.7,323.9 C628.8,322.2 626.1,320.9 623.3,319.7 Z" id="Path" fill="#3F3161"></path>
                    <path d="M488.9,192.6 C492.2,188.8 494.8,184.6 497.4,180.3 C498.1,179.1 498.9,177.9 499.4,176.6 C499.7,175.9 500.1,174 499.8,173.4 C499.2,172.1 497,173.6 495.6,174 C483.4,177.5 471.1,180.9 459.1,185.1 C458.4,185.4 457.6,185.6 457,186.1 C456.4,186.6 456.1,187.4 456.3,188.1 C456.5,188.7 457.2,189.1 457.8,189.4 C462.1,191.4 463.2,195.5 466.9,198.4 C469.7,200.5 472.4,203.6 476.4,201.8 C480.5,200 486.2,195.8 488.9,192.6 Z" id="Path" fill="#0062BA"></path>
                    <path d="M496.1,172.4 C497.3,172.1 499,171.9 499.6,172.9 C500.2,173.8 499.6,175 498.9,175.9 C497.4,178 496.2,180 494.4,181.8 C492.8,183.5 488.1,186 484,187.3 C478.9,188.8 473.6,189.6 468.4,190.8 C465.5,191.4 462.5,192.1 459.7,191.6 C456.7,191.1 454,189.2 452.5,186.7 C450.1,182.8 453.8,182.9 457.2,182.3 C465.6,180.7 473.8,178.5 482.1,176.2 C486.7,174.9 491.4,173.6 496.1,172.4 Z" id="Path" fill="#3F3161"></path>
                    <path d="M421.2,168.9 C421.2,168.9 424.1,178.6 425.5,197.2 C426.5,209.8 428.5,226.8 441.9,237.1 C448.2,242 457,247.3 469.4,246.1 C489.8,244.2 491.7,234.8 510.9,234.5 C525.8,234.3 528.9,236.3 533.4,227 C533.4,227 534.6,227.4 520.6,222.1 C506.3,216.6 492.4,211.5 483.2,206 C464.5,194.8 452.1,181.2 446.6,167.2 C441.1,153.1 421.2,168.9 421.2,168.9 Z" id="Path" fill="#E23B53"></path>
                    <path d="M469,223.9 C468.3,221.8 469,219.3 470.9,218.2 C468.5,217.5 466,216.7 464.4,214.8 C462.7,213 462.4,209.7 464.3,208.1 C459.8,207.2 455.9,204.1 453.9,200 C453.6,199.5 453.4,198.8 453.7,198.3 C454.5,196.6 459.4,198.1 460.9,198.6 C464.2,199.7 484.8,208.5 491.8,210.9 C495.1,212 506.8,216.7 511.2,218.2 C514.4,219.2 520,221 521.8,222.8 C524.2,225.3 520.8,227 518.8,228.1 C514.9,230.2 510.9,232.4 506.6,233.4 C499.6,235.1 492.4,234.4 484.9,232.8 C479.6,231.7 470.9,229.5 469,223.9 Z" id="Path" fill="#3F3161"></path>
                    <path d="M409,158.1 C409.6,157.7 411.1,158.8 411.5,159.1 C414.5,160.9 417.6,162.4 420.8,163.8 C421.5,164.1 422.3,164.5 423.1,164.3 C420,158.9 417.3,153.1 415.1,147.3 C414.9,146.7 415.4,145.6 416.1,146.4 C418.5,149.1 421.3,152 423.1,154.1 C424.2,155.4 425.2,155.3 425.5,155.3 C429,154.7 432.7,154.8 436.2,155.8 C437.6,156.2 439,156.7 440.3,157.5 C441.9,158.6 443,160.1 444.1,161.7 C447.4,166.7 447.5,168.4 450.8,175.5 C451.2,176.3 451.9,179.5 450.2,180.5 C448.8,181.3 446.9,179.2 445.5,179.7 C444.4,180.1 444.5,182 444.1,182.9 C443.5,184.2 442.5,185.1 441.1,185.3 C440.2,185.5 439.2,185.4 438.4,185.1 C437.3,184.7 436.4,184 435.5,183.2 C433.8,181.7 432.1,180 430.5,178.3 C429.8,177.6 429,177.1 428.3,176.5 C427.5,175.7 426.7,174.9 425.9,174.1 C423.3,171.6 420.3,169.6 417.4,167.4 C415.3,165.8 413.3,164.2 411.4,162.5 C410.5,161.7 408.9,160.3 408.8,159 C408.7,158.4 408.8,158.2 409,158.1 Z" id="Path" fill="#0062BA"></path>
                    <path d="M455.2,264.1 C453.8,264.7 452.4,265.2 451.6,266.4 C450.8,267.5 450.5,269 450.7,270.4 C450.8,270.9 450.9,271.4 451.2,271.9 C451.5,272.3 451.8,272.6 452.2,272.9 C453.2,273.6 454.5,274 455.5,273.5 C456.5,272.9 457,271.6 457.7,270.7 C458.3,269.8 458.9,268.7 460.1,268.4 C461.6,267.9 463.3,268.1 465.1,268.8 C464.3,267.5 463.7,266.6 463.5,265.1 C463.2,263.2 463.2,261.5 463.2,259.6 C463.2,256.9 463.2,254.3 463.3,251.6 C463.3,249.6 463.6,243.1 463.6,243.1 L456.6,241.5 C456.6,241.5 456.8,246.8 456.9,248.4 C457,251.2 457.1,254 457.2,256.8 C457.2,258.2 457.3,259.6 457.3,261.1 C457.2,263.6 456,263.7 455.2,264.1 Z" id="Path" fill="#E23B53"></path>
                </g>
            </g>
        </g>
    </g>
</svg>