<?xml version="1.0" encoding="UTF-8"?>
<svg width="332px" height="332px" viewBox="0 0 332 332" version="1.1" xmlns="http://www.w3.org/2000/svg" xmlns:xlink="http://www.w3.org/1999/xlink">
    <title>illustrasjon_starte_og_drive</title>
    <defs>
        <circle id="path-1" cx="165.92" cy="165.92" r="165.92"></circle>
    </defs>
    <g id="Page-1" stroke="none" stroke-width="1" fill="none" fill-rule="evenodd">
        <g id="illustrasjon_starte_og_drive">
            <mask id="mask-2" fill="white">
                <use xlink:href="#path-1"></use>
            </mask>
            <g id="Oval"></g>
            <g id="illustrasjon_starte_og_drive_sirkel_alt-copy" mask="url(#mask-2)" fill-rule="nonzero">
                <g transform="translate(-74.000000, -46.000000)">
                    <rect id="Rectangle" fill="#CFF0FF" x="28.2" y="0.3" width="416.4" height="197.4"></rect>
                    <circle id="Oval" fill="#EFEFEF" transform="translate(182.206110, 149.700220) rotate(-80.781636) translate(-182.206110, -149.700220) " cx="182.20611" cy="149.70022" r="40.000609"></circle>
                    <path d="M441.3,294.4 L440.9,294.4 C439.3,294.4 437.7,294.4 436.1,294.4 C432.8,294.4 429.5,294.4 426.2,294.4 C421.3,294.4 416.5,294.4 411.6,294.4 C405.3,294.4 398.9,294.4 392.6,294.4 C384.9,294.4 377.2,294.4 369.5,294.4 C360.6,294.4 351.7,294.4 342.8,294.4 C332.8,294.4 322.7,294.4 312.7,294.4 C301.7,294.4 290.6,294.4 279.6,294.4 C267.7,294.4 255.8,294.4 243.9,294.4 C231.2,294.4 218.6,294.4 205.9,294.4 C192.6,294.4 179.3,294.4 166,294.4 C152.2,294.4 138.3,294.4 124.5,294.4 C110.2,294.4 96,294.4 81.7,294.4 C73,294.4 64.3,294 55.7,294.1 C48.4,294.2 46.3,295.6 45.4,304.2 C44,317.8 43.1,331.5 42.7,345.2 C42.5,354.5 38.7,376.8 43.9,384.7 C48.5,391.6 69.6,387.6 77.2,387.6 C90.9,387.6 104.6,387.6 118.3,387.6 C168.4,387.6 218.6,387.6 268.7,387.6 C325.3,387.6 381.8,387.6 438.4,387.6 C438.5,387.6 441.3,387.6 441.3,387.6 C441.3,387.4 441.3,294.4 441.3,294.4 Z" id="Path" fill="#EFEFEF"></path>
                    <path d="M12.3,138 C12.6,137.1 13,136.2 13.4,135.3 C15.8,130.2 21.1,122 27.5,121.798679 C33.2,121.7 36,127.3 40.1,130.3 C49,136.7 60.1,135.6 70.1,132.6 C110.5,120.6 128.5,145.1 147.1,165 C198.8,134 248.5,147.8 275.3,193 C284.6,208.8 293.7,183.5 299.4,189.6 C306,196.7 309.5,194.1 314.6,194.7 C324,195.7 332.6,193.9 341.5,192.1 C348.8,190.7 356.2,189.8 363.6,189.8 C380.5,189.7 397.3,194.6 410.6,205.5 C416.1,210 423,220.7 425.9,225.6 L415.8,280.4 C415.8,280.4 285.6,297.1 285.4,297.2 C280.6,297.8 275,296.9 270.2,296.7 C234.4,295.6 198.6,294.4 162.8,293.3 C137,292.5 111.3,291.7 85.5,290.8 C71.7,290.4 58,289.9 44.2,289.5 C36.1,289.2 18.3,293.6 16.9,283.4 C11.2,242.8 8.7,201.7 9.4,160.6 C9.4,153 9.7,145.1 12.3,138 Z" id="Path" fill="#FFFFFF"></path>
                    <rect id="Rectangle" fill="#3F3161" x="281.7" y="277.9" width="114.6" height="56.7"></rect>
                    <path d="M275,361.1 C278.1,365.9 288.2,376 301.1,380.1 C306.7,381.9 313.5,380.2 319.4,380.7 C323.2,381 327.1,381.2 330.9,381.2 C334.5,381.2 338.4,381.5 341.9,380.7 C346.7,379.6 353,379.1 355.3,373.9 C357.1,369.9 355.2,365.2 353.4,361.6 C350.8,356.6 347.2,352.1 343.4,347.9 C341.5,345.8 339.5,343.7 337.5,341.7 C336.6,340.8 335.7,339.6 334.7,339 C332.8,337.9 330.1,337.3 328,336.5 C325.8,335.6 323.5,334.8 321.2,334.2 C317.7,333.3 314,333.2 310.4,333.2 C299.7,333.1 288.9,333.7 278.2,334.5 C275.1,334.7 272.7,334.5 269.6,334.7 C269.5,338.7 268.7,351.3 275,361.1 Z" id="Path" fill="#FFFFFF"></path>
                    <path d="M121.3,344.4 C130.5,342.9 139.5,340 148.6,338.2 C158,336.3 167.5,334.9 177.1,334.7 C177.9,334.7 178.6,334.7 179.4,334.7 C183.9,334.7 188.5,334.2 192.9,333.5 C194.9,333.2 197,331.4 198.7,330.3 C200.2,329.3 201.6,330.6 203.2,329.6 C209.8,325.6 216.3,321.6 222.9,317.5 C233.4,311.1 243.9,304.6 254.4,298.2 C255.8,297.3 257.2,296.5 258.7,295.6 C257,295.6 251.5,291.2 244.3,291.1 C234.5,291 222.2,295.1 216.3,295.1 C202.2,294.9 188.1,294.7 174,294.6 C158.3,294.4 142.7,294.2 127,294 C112.2,293.8 97.4,293.6 82.5,293.4 C75.7,293.3 68.9,291.1 62,290.3 C53.7,289.3 51.1,288.5 42.7,288.1 C39.2,287.9 20.1,295.7 13.8,299 C-3.9,308.2 0.2,321.3 5.4,326.5 C25.7,346.8 70.9,349.3 105.3,349.1 C130.8,349.1 114.2,345.6 121.3,344.4 Z" id="Path" fill="#6A6A6A"></path>
                    <path d="M335.3,311.7 C337.6,311.6 339.9,311.5 342.2,311.4 C352.7,310.8 363.2,310.5 373.7,310 C374.9,309.9 387.6,309.4 387.6,309.4 C387.4,301.8 387,294.2 386.3,286.7 C385.8,281.2 385.2,275.6 382.5,270.8 C378.5,263.6 370.7,259.5 362.7,257.5 C358.5,256.5 354.2,255.9 350,254.8 C344.2,253.2 338.8,250.5 333.6,247.5 C325,242.6 316.6,236.6 311.8,228 C310.1,225 308.9,221.6 307,218.7 C304.9,215.4 301.1,211.7 297.2,210.6 C295.1,210 292.4,210.3 290.1,210.2 C287.8,210.1 285.5,210 283.2,210 C282.5,210 269.5,209.6 269.5,209.5 C269.5,226.7 251.3,221.9 251.3,253.9 C251.3,288 251.3,297.7 251.3,299.9 C251.3,300.3 251.9,299.9 251.9,299.9 L252.4,300.4 C253.1,301.1 257.8,300.4 258.7,300.4 C263.4,300.4 268.1,300.8 272.8,300.8 C278.8,300.8 284.9,300.8 290.8,302 C294.2,302.7 297.6,303.8 299.9,306.3 C300.6,307.1 301.2,308 302,308.7 C304,310.6 307,311 309.7,311.3 C318.4,312.1 326.9,312 335.3,311.7 Z" id="Path" fill="#3F3161"></path>
                    <path d="M385.5,252 C385.5,261.7 385.5,271.4 385.5,281 C385.5,293.6 385.6,306.3 385.7,318.9 C385.7,319 385.7,319.2 385.8,319.3 C385.9,319.4 386.1,319.4 386.3,319.4 C388.2,319.5 390,319 391.8,318.7 C395.5,318.1 399.3,318.2 403,318.2 C408.8,318.3 414.7,318.3 420.5,318.4 C424.4,318.4 428.3,318.5 432.2,318 C433.9,317.8 435.7,317.5 437.2,316.8 C438.8,316.1 440.2,314.9 440.8,313.4 C441.6,311.4 441.1,309.1 440.8,307 C440.5,304.8 440.3,302.6 440.7,300.4 C441.9,292.1 441.1,283.1 441.1,274.7 C441.1,263.5 441.1,252.2 441.1,241 C441.1,233.8 441.1,226.7 441.1,219.5 C441.1,219.3 441.1,219.1 441.1,219 L385.6,219 C385.5,219.1 385.5,252 385.5,252 Z" id="Path" fill="#0062BA"></path>
                    <path d="M269.6,209.3 L269.4,197.3 L269.6,197 L269.6,196.9 L395.4,184.4 L441.3,196.9 C441.3,201.2 441.3,205.5 441.3,209.9 C441.3,214.5 441.1,236.1 441.1,236.1 C441.1,236.1 438.2,237.7 437.4,237.4 C436.7,237.2 436.2,236.6 435.7,236.1 C433.1,233.3 431.4,231.4 427.4,231 C423.7,230.6 419.9,231.1 416.1,231.1 C401.7,231.1 349.5,231.1 349.5,231.1 C349.5,232.5 350.1,240.3 347.9,240.1 C346.8,240 345.8,239.7 344.9,239 C343.1,237.6 343.3,235 343.3,233 C343.3,230.5 343.3,228 343.3,225.5 C343.3,225.1 343.4,218.9 343.3,218.9 C343.3,218.8 269.6,209.3 269.6,209.3 Z" id="Path" fill="#1EAEF7"></path>
                    <polygon id="Path" fill="#1EAEF7" points="277.3 227.9 280 327.5 277.3 334.7 269.6 334.7 269.6 226.5"></polygon>
                    <polygon id="Path" fill="#6A6A6A" points="277.3 227.9 284 230.9 284 334.7 277.3 334.7"></polygon>
                    <polygon id="Path" fill="#0062BA" points="355.5 231.1 355.5 305.4 349.5 306.5 349.5 231.1"></polygon>
                    <path d="M269.6,197 C269.6,201.9 269.4,227.8 270.2,235.9 C271.4,248 269.7,282.5 269.7,282.5 L269.6,301.4 C269.6,301.4 261.4,301.3 255.7,301.2 C256.5,301.2 254.4,296.5 254.1,296.1 C252.7,294.4 251,294.6 249,294.3 C245.9,293.8 242.9,293.4 239.8,292.9 L196.3,274.7 L242.2,197.1 C242.1,197 269.6,197 269.6,197 Z" id="Path" fill="#0062BA"></path>
                    <path d="M269.6,196.9 C269.6,188.8 310.6,179 310.6,179 L478.6,170.2 L450.3,197.7 L269.6,196.9 Z" id="Path" fill="#0062BA"></path>
                    <path d="M85.5,197.1 C81.4,202.2 77.3,207.3 73.2,212.3 C69.9,216.3 66.7,220.4 63.4,224.4 C62,226.1 60.5,227.7 58.7,229.9 C57.9,230.9 56.6,232.1 56.4,233.4 C56.1,235.2 58.7,235.4 60,235.4 C61.7,235.4 63.4,235.4 65.1,235.4 C69.5,235.4 74,235.4 78.4,235.4 C88.2,235.4 98,235.4 107.8,235.4 C108.6,235.4 122.2,235.7 122.2,235.4 C122.2,235.3 128.1,197.1 128.1,197.1 L85.5,197.1 L85.5,197.1 Z" id="Path" fill="#CFF0FF"></path>
                    <path d="M171.4,197.1 C161.3,197.1 128.3,197.1 128.3,197.1 L119.7,235.4 L196.3,235.4 L192.6,217.6 C192.5,217.6 181.5,197.1 171.4,197.1 Z" id="Path" fill="#1EAEF7"></path>
                    <path d="M128.2,197.1 L132.6,197.1 L140.8,235.4 L119.5,235.4 C119.5,235.4 118.1,235.6 116.8,234.9 C115.6,234.2 114.6,232.7 115.7,229.7 C118.1,223.8 128.2,197.1 128.2,197.1 Z" id="Path" fill="#1EAEF7"></path>
                    <polygon id="Path" fill="#0062BA" points="116.4 234.9 116.4 302.6 141.2 297.1 141.2 234"></polygon>
                    <path d="M226.9,197.1 C215.1,197.1 199.1,197.1 193.8,197.1 C187.2,198.2 182.3,197.9 175.7,199.3 C170.6,200.4 169.1,202 164.4,204.4 C163.3,205 162.9,212.5 158.2,216.8 C151.8,222.7 140.3,226.5 135.7,233.9 C132.3,239.3 133.3,243.2 134,246.9 C134.3,248.8 138.7,253.2 136.7,258.3 C134.8,263.1 132.2,268.2 131.2,274.4 C128.9,290.1 139.3,295 139.4,297 C139.5,298.5 142.4,296.7 143.1,298.1 C144.8,301.1 148.7,301.9 152.1,301.9 C155.5,301.9 159.1,301.3 162.3,302.5 C166.2,304.1 168.5,308.1 169.7,312.1 C170.8,315.6 171.3,319.3 171.2,323 C171.1,326.5 170.5,330.1 171.2,333.5 C171.9,336.9 174.3,340.4 177.8,340.7 C180,340.9 182.2,339.9 183.9,338.4 C186.3,336.4 188,333.9 189.2,331.1 C189.6,330.2 190.4,329.5 191.2,329.1 C191.8,328.8 192.9,328.5 193.2,327.9 C193.8,326.8 194,325.4 194.3,324.2 C194.6,323 194.9,321.8 195.2,320.6 C195.7,318.2 196,315.8 196.5,313.4 C196.7,312.3 197.1,311.2 197.8,310.3 C199.6,308.3 202.7,308.5 205.3,307.9 C209.3,307 211.2,305.2 212.1,301.2 C212.7,298.5 212.3,296.3 213.5,295.3 C215,294 218.5,293.1 220.2,292 C222.1,290.7 223.8,289 224.7,286.9 C225.3,285.5 225.5,284 225.7,282.4 C225.9,280.5 226.1,278.6 225.8,276.8 C225.5,274.6 224.6,272.5 224.5,270.4 C224.4,266.8 226.3,264.7 228.8,262.5 C231.2,260.4 233.2,257.6 233.7,254.3 C234.3,250.2 231.8,245.4 227.7,244.7 C226.1,244.4 224.5,244.7 222.9,244.5 C221.3,244.3 219.6,243.4 219.3,241.9 C218.9,240.1 220.5,238.5 221.8,237.3 C224.1,235.2 226.2,232.8 226.7,229.7 C227.1,226.7 225,223.1 221.9,223.2 C224,221.3 226.2,219.3 227.2,216.6 C227.7,215.2 227.7,213.5 227.2,212.1 C226.5,210.3 225.4,210.1 224.1,209.1 C221.1,206.4 230.4,199.5 226.9,197.1 Z" id="Path" fill="#1EAEF7"></path>
                    <path d="M134.2,247.6 C133.2,243.1 134.1,237.4 137.8,234.4 C142.9,230.3 148.8,234.9 148.8,234.9 C148.8,234.9 150.6,219.7 167.9,220.3 C167.1,215.1 170.3,208.8 174.5,206.4 C177.8,204.5 178.8,198.9 182.5,198.3 C183.9,198.1 188.3,201.5 189.4,200.7 C187.4,199.8 183.7,197.9 180.8,197.1 C177.5,196.1 171.8,196.6 169.2,197.6 C156.8,202.4 155.7,213.3 155.7,213.3 C154.7,212.9 153.4,212.6 153.2,212.6 C151,212.2 145.4,212.3 142.3,213.5 C137.5,215.4 133.6,219.2 130.8,226.5 C127.6,234.9 131.3,243 134.2,247.6 Z" id="Path" fill="#CFF0FF"></path>
                    <path d="M227.4,197 C225.1,197 216.4,197.1 193.8,197.1 C214,200.1 210.5,218.9 212.9,225 C213.9,227.6 215.6,226.6 217,229.1 C219.6,233.7 218.2,244 214.9,250 C214.1,251.4 212.7,254.5 213.3,257.2 C214.1,260.9 216.8,262.2 216.7,266.3 C216.6,268.4 215.9,270.3 214.8,272.1 C217.4,272.8 219.5,275.1 220.4,277.6 C221.3,280.1 221.3,283 220.8,285.7 C220.5,287.4 220,289 219,290.4 C217.6,292.4 214.9,293.6 213.3,295.5 C220.4,295.8 227.9,295.3 235,294.1 C237.4,293.7 237.5,291.1 238,289.2 C238.5,287.2 239.1,285.2 239.6,283.2 C240,281.4 239.9,279.6 239.9,277.7 C239.4,267.4 238.9,257 238.4,246.7 C238.1,240.9 237.9,234.9 239.6,229.3 C241.7,222.6 246.7,219 246.7,209.7 C246.7,208 246.7,198.5 246.7,197 C241.1,196.9 239.2,197 227.4,197 Z" id="Path" fill="#3F3161"></path>
                    <rect id="Rectangle" fill="#3F3161" x="184.6" y="226.4" width="3.5" height="93.5"></rect>
                    <path d="M185.7,270.4 C180,270.4 175.3,268.7 171.9,265.3 C166.1,259.5 166.1,251 166.1,250.7 L169.6,250.7 L167.9,250.7 L169.6,250.7 C169.6,250.7 169.6,255 171.7,259 C174.3,264.3 179,266.9 185.7,266.9 C190.5,266.9 194.3,265.5 196.9,262.8 C201.5,258.1 201.3,251 201.3,250.9 L204.8,250.8 C204.8,251.2 205,259.5 199.4,265.2 C196.1,268.7 191.4,270.4 185.7,270.4 Z" id="Path" fill="#3F3161"></path>
                    <path d="M204.8,251.5 C202.6,251.4 200.5,251.1 198.6,250 C198.3,249.8 197.9,249.6 197.7,249.3 C197.6,249.1 197.5,248.8 197.5,248.5 C196.3,241.7 194.7,235.1 193.5,228.3 C197.3,228.3 201.2,225.3 205,224.9 C207.6,224.6 210.3,225.3 212.7,226.4 C213.7,226.8 214.1,226.4 214.8,227.3 C215.7,228.3 215.9,227.4 217,228.9 C215.6,234.9 206.7,251 204.8,251.5 Z" id="Path" fill="#CFF0FF"></path>
                    <path d="M204.8,220.3 C203.7,220.3 195.6,222.5 195.1,223.6 C194.2,225.6 193.4,228.2 193.5,228.3 C194.2,228.4 199.1,229.3 204.7,229.2 C209.1,229.4 216.8,229.4 217,229 C217.3,228.6 215,224.5 214.5,223.5 C213.6,222.1 206,220.3 204.8,220.3 Z" id="Path" fill="#0062BA"></path>
                    <path d="M198.4,205.9 C197.6,205.1 195.6,204.5 194.6,204 C192.1,202.9 189.4,202.2 186.7,202.5 C184,202.2 181.3,203 178.8,204 C177.8,204.4 175.7,205 175,205.9 C174.1,206.9 174.7,207.8 175,209.3 C176.5,215.3 177.9,221.3 179.4,227.4 C179.5,227.7 179.5,228 179.7,228.2 C179.9,228.4 180.3,228.5 180.6,228.5 C182.5,228.7 184.5,229 186.5,229 L186.5,229 C186.5,229 186.6,228.9 186.7,228.9 C186.7,228.9 193.3,227.4 193.4,227.2 C194.8,221.1 199.3,206.9 198.4,205.9 Z" id="Path" fill="#CFF0FF"></path>
                    <path d="M198.8,206.5 C199.1,206 198.7,205.6 198.6,205.2 C198.4,204.7 194.2,197.4 193.9,197.1 C193.8,197 181.6,196.9 180.9,197.1 C179.2,197.6 178.3,199.5 177.3,200.9 C176.3,202.4 175.4,204.1 174.6,205.8 C174.4,206.2 174.1,206.6 175.4,206.6 C176.9,206.6 189.3,206.7 189.3,206.7 C189.3,206.7 198.7,206.7 198.8,206.5 Z" id="Path" fill="#0062BA"></path>
                    <path d="M186.5,229 L186.5,206.7 L198.7,206.6 C198.7,206.6 194,227.1 193.9,227.4 C193.9,227.7 193.8,228.4 191.7,228.6 C189.4,228.7 186.5,229 186.5,229 Z" id="Path" fill="#FFFFFF"></path>
                    <path d="M204.7,251.6 L204.7,229.2 L216.9,229.1 L212.1,249.9 C212.1,249.9 211.8,251.1 209.9,251.2 C207.7,251.3 204.7,251.6 204.7,251.6 Z" id="Path" fill="#FFFFFF"></path>
                    <path d="M167.9,251.5 C165.8,251.4 163.7,251.1 161.8,250 C161.5,249.8 161.1,249.6 160.9,249.3 C160.8,249.1 160.7,248.8 160.7,248.5 C159.5,241.7 158,235 156.8,228.2 C160.6,228.2 164.4,225.3 168.2,224.9 C170.8,224.6 173.5,225.3 175.9,226.4 C176.9,226.8 177.3,226.4 178,227.3 C178.9,228.3 179.1,227.4 180.2,228.9 C178.8,234.9 168,251.5 167.9,251.5 Z" id="Path" fill="#CFF0FF"></path>
                    <path d="M168,220.3 C166.9,220.3 158.8,222.5 158.3,223.6 C157.4,225.6 156.7,228.1 156.8,228.2 C157.5,228.3 162.3,229.3 167.9,229.2 C172.3,229.4 180,229.4 180.2,229 C180.5,228.6 178.2,224.5 177.7,223.5 C176.8,222.1 169.2,220.3 168,220.3 Z" id="Path" fill="#0062BA"></path>
                    <path d="M167.9,251.5 L167.9,229.2 L180.1,229.1 L175.3,249.9 C175.3,249.9 175,251.1 173.1,251.2 C170.9,251.3 167.9,251.5 167.9,251.5 Z" id="Path" fill="#FFFFFF"></path>
                    <path d="M269.6,209.3 L441.3,209.8 C441.3,209.8 428.2,219.6 425.4,222.9 C418.6,231 418.3,241.3 418.3,254.8 C395.2,254.8 311.1,259.4 271.6,252 C251.4,252 246.8,252.4 246.8,240.4 C246.8,220.5 269.6,209.3 269.6,209.3 Z" id="Path" fill="#CFF0FF"></path>
                    <path d="M258.9,218.9 C266.9,212 274.3,213 286.9,213 C310.3,213 380.1,213.6 380.1,213.6 C380.1,213.6 283.1,231.3 263.8,231.1 C258.7,231.1 255.7,229.8 254.1,228.1 C251.9,225.6 255.8,221.5 258.9,218.9 Z" id="Path" fill="#FFFFFF"></path>
                    <path d="M58.3,240.7 C58,243.3 59,245.6 60.2,247.9 C60.4,248.3 61.6,249.9 60.6,251.1 C59.3,252.8 58.5,253.7 58.3,255.9 C58.1,257.7 58.7,259.4 59.9,260.7 C60.7,261.5 61.7,262.4 61.5,263.4 C61.3,264.1 60.6,264.5 60.1,265.1 C59.2,266.2 58.3,267.1 58.3,269.4 C58.3,272 59.5,274.6 61.7,276.2 C60.2,277.3 58.9,278.4 58.5,279.8 C58,281.6 58.4,284.2 59.8,285.7 C60.4,286.4 61.6,287.7 61.9,288.6 C62.3,289.5 61.6,289.1 59.8,291.5 C58.7,293.1 58,294.8 58.6,297.2 C59.2,299.5 61.2,301.1 62.3,301.7 C59,303.4 57,307.2 57.6,309.5 C58.2,311.8 60.4,313.7 62.9,313.7 L117.2,313.7 C117.1,312.1 116.9,310.5 116.8,308.9 L116.8,234.9 L60.8,235.4 C60.8,235.4 58.7,237.2 58.3,240.7 Z" id="Path" fill="#EFEFEF"></path>
                    <path d="M97.6,248.1 C101.7,248.1 105.8,248.1 109.9,248.4 C110.2,248.4 110.5,248.4 110.7,248.6 C110.9,248.8 110.9,249 110.9,249.2 C111,250.3 110.9,251.4 110.6,252.5 C106.5,252.7 103.3,252.8 99.8,252.8 C88.5,252.9 79.5,252.7 68.2,252.6 C66.6,252.6 64.1,252.9 63.3,251.1 C62.9,250.1 63,248.9 64.1,248.4 C65.8,247.5 69.5,247.9 71.4,247.9 C74.1,247.9 76.7,247.9 79.4,247.9 C85.4,248.1 91.5,248.1 97.6,248.1 Z" id="Path" fill="#CFF0FF"></path>
                    <path d="M60.9,264.5 C60.9,265.4 61.3,265.8 62,265.8 C75.6,265.8 107.6,265.1 109.9,265 C110.1,265 110.4,265 110.5,264.8 C110.6,264.6 110.6,264.4 110.6,264.2 C110.6,262.6 110.6,260.4 110.6,260.4 C110.6,260.4 67.8,261 64.9,261.2 C64.1,261.2 61,261.2 60.9,261.8 C60.8,262.5 60.9,263.7 60.9,264.5 Z" id="Path" fill="#CFF0FF"></path>
                    <path d="M109.5,277.7 C109.8,277.7 110.1,277.6 110.3,277.4 C110.5,277.1 110.5,276.7 110.5,276.4 C110.4,275.3 110.2,273.4 110.2,273.4 C110.2,273.4 72.5,273.8 62.5,274.6 C61.2,274.7 60.9,275.2 60.9,275.7 C60.9,277.6 61.1,278.4 62.7,278.4 C64.2,278.4 65.8,278.4 67.3,278.4 C70.5,278.3 105.7,278.1 109.5,277.7 Z" id="Path" fill="#CFF0FF"></path>
                    <path d="M60.9,290.7 C60.9,290.9 60.9,291.1 61,291.2 C61.1,291.4 61.4,291.4 61.7,291.4 C78.2,291.5 94.6,291.4 111.1,291.1 C111.1,289.2 111.1,286.6 111.1,286.6 C111.1,286.6 63.4,286.5 61.8,286.9 C60.8,287.2 61,287 60.9,288.1 C60.9,289 60.9,289.8 60.9,290.7 Z" id="Path" fill="#CFF0FF"></path>
                    <path d="M61,304.6 C61,304.9 61,305.2 61.2,305.4 C61.4,305.6 61.6,305.6 61.9,305.6 C76.7,305.3 91.4,305.1 106.2,304.8 C107.5,304.8 108.9,304.8 110.2,304.7 C110.5,304.7 110.8,304.7 111,304.5 C111.2,304.3 111.2,303.9 111.2,303.6 C111.2,302.8 111.2,302 111.2,301.2 C111.2,300.9 111.2,300.6 111,300.4 C110.7,300 110.2,300 109.7,300 C94.8,300.1 79.9,300.1 65,300.2 C63.9,300.2 61,300 61,300.8 C61,301.7 61,303.7 61,304.6 Z" id="Path" fill="#CFF0FF"></path>
                    <path d="M141.6,347.9 C139,348.1 136.4,348.2 133.8,348.4 C125.5,348.9 117.1,349.4 108.8,349.4 C106.4,349.4 103.9,349.3 102,347.9 C100.3,346.6 99.4,344.4 99.4,342.2 C99.4,340 100.1,337.7 101.2,335.7 C102.2,333.9 102,332.7 101.5,330.7 C100.4,326.9 99.5,322.8 102,318.8 C103.5,316.4 106.1,314.7 108.7,313.8 C106,308.8 104.9,302.8 110.2,298.1 C115,293.8 123.2,296.2 125.3,298.4 C125.3,298.3 125.8,288.2 131.6,285.3 C141.4,280.4 146.5,291 147.3,286.8 C148.5,280.6 153.6,276.3 159.9,275.9 C162.5,275.7 165.2,277 166.5,279.5 C167.1,280.6 167.7,282.3 168.2,283.5 C169.1,285.7 171.7,285.1 173.5,286 C175.8,287.1 175.9,289.3 175.5,291.2 C177.3,291 179.1,290.9 180.8,291.4 C182.5,291.9 184.1,293 184.7,294.7 C185.6,297.1 184.3,300.1 186,302 C186.7,302.8 187.6,303.2 188.5,303.7 C193.1,306.5 193.7,313.4 191.2,318.1 C190.8,318.9 190.2,319.8 190.4,320.8 C190.7,322.2 191.9,323.4 192.3,324.9 C192.8,327.1 194.1,330 193.8,332.2 C193.4,334.7 191.1,336.6 189.2,338.1 C187.1,339.8 184.4,340.8 181.8,341.6 C168.6,345.6 155.1,347 141.6,347.9 Z" id="Path" fill="#3F3161"></path>
                    <path d="M319,344.5 C310.8,344.5 302.7,346.2 293.8,344.4 C289.5,343.5 284.3,338.8 284,334.7 C283.8,332.2 283.9,327.9 287.2,324.6 C288.4,323.4 290.4,322.7 292.2,323.1 C292.8,321.5 293.7,319.9 295.1,318.8 C296.5,317.7 298.5,317.1 300.4,317.7 C300.7,317.8 301,317.9 301.3,317.8 C301.5,317.7 301.6,317.6 301.7,317.5 C303.8,314.1 304.3,311.7 307.7,309.9 C310.7,308.3 314.6,308.8 317.1,310.1 C319,311.1 320.4,312.7 321.9,314.1 C322.6,314.8 323.6,315.8 324.3,314.6 C326.1,311.3 331.5,305.8 341.1,309.5 C346.4,311.6 347.5,319 348,323.9 C348.3,326.9 348.4,329.8 348.3,332.8 C347.9,334.3 348.8,336.2 348.6,337.7 C348.3,339.6 347.1,341.8 346.5,343.6 C346.3,344 346.2,344.5 345.7,344.8 C345.4,345 345,345 344.6,345 C336.1,345 327.5,344.5 319,344.5 Z" id="Path" fill="#0062BA"></path>
                    <path d="M410.2,316.1 C410.3,316 410.5,316.1 410.4,316.2 C411,313.6 410.5,310 410.5,310 L399.4,310 C399.4,310 376.4,303.5 370.7,303.4 C363.3,303.3 357.8,303.5 350.4,303.6 C345.8,303.7 341.2,303.8 336.9,305.4 C332.6,307 328.8,310.5 328,314.9 C327.2,319.5 328.8,322.5 332.8,324.4 C334.9,325.5 337.3,326.1 339.6,326.4 C341.9,326.6 344.6,326.7 345.9,328.6 C346.4,329.3 346.6,330.1 346.8,331 C347.4,333.8 348,336.6 348.7,339.5 C360.9,339.5 373,338.5 385.2,337.5 C385.8,337.4 386.5,337.4 387.1,337.1 C387.7,336.8 388.2,336.3 388.7,335.8 C391.6,333 394.7,330.4 398,328.2 C402.5,325.2 407.1,320.7 410.2,316.1 Z" id="Path" fill="#6A6A6A"></path>
                    <path d="M316.2,311.7 C318.6,308.8 322.9,307.1 326.4,306 C328.9,305.2 331.4,304.7 334,304.5 C335.2,304.4 336.3,304.1 337.4,304.3 C338.6,304.5 339.8,305 340.9,305.6 C343.3,306.7 345.7,307.9 347.8,309.4 C349.2,310.4 350.7,311.7 350.8,313.4 C350.8,314.6 350.2,315.7 349.3,316.5 C348.4,317.3 347.3,317.8 346.2,318.2 C343.3,319.4 340.4,320.4 337.4,321.2 C335.9,321.6 331.4,322.7 328.8,323.2 C330.6,325.6 332.7,327.5 333.9,330.5 C335.8,335.4 334.6,340.3 331.1,344.2 C321.4,354.9 312.3,337.7 313.7,325.3 C315.1,312.9 316.2,311.7 316.2,311.7 Z" id="Path" fill="#1EAEF7"></path>
                    <path d="M381,303.3 C377.4,303.3 373.9,303.4 370.3,303.5 C368.7,303.6 366.6,304.9 367.4,306.8 C367.8,307.7 368.7,308.3 369.6,308.8 C371.9,310.1 374.3,311 376.8,312 C378.2,312.6 379.7,313.1 381.2,313.3 C382.5,313.5 383.8,313.4 385.1,313.2 C387.2,313 389.3,312.8 391.4,312.6 C391.9,312.6 392.4,312.5 392.9,312.7 C393.4,312.9 393.8,313.3 394.1,313.8 C395.4,315.3 396.7,316.9 397.9,318.4 C398.7,317.9 399.2,317.4 399.8,316.7 C400.1,316.3 400.2,315.8 400.5,315.4 C400.7,315.1 401,315 401.1,314.7 C401.9,312.4 402.1,309.8 401.4,307.4 C401.1,306.5 400.6,304.7 399.7,304.3 C399.5,304.2 399.2,304.2 398.9,304.1 C393.1,303.6 387.1,303.3 381,303.3 Z" id="Path" fill="#1EAEF7"></path>
                    <path d="M317.4,286.8 C317.2,286.2 316.9,285.1 317.3,284.8 C317.7,284.5 317.9,284.5 318.6,284.5 C318.8,284.5 318.9,284.9 319,285.1 C320.7,289.6 322,293.4 323.5,297.6 C324.7,301.1 325.7,303.6 327.1,308 C327.6,309.5 325.4,309.4 324.8,308.5 C323.8,307.2 318.1,288.8 317.4,286.8 Z" id="Path" fill="#1EAEF7"></path>
                    <path d="M326.7,293.5 C326.5,292.9 326.4,292.3 326.6,291.8 C326.8,291.3 327.6,290.9 328,291.4 C328.1,291.5 328.2,291.7 328.3,291.9 C329.8,296.5 330.8,300.4 332,304.6 C333,308.2 333.8,310.7 335,315.2 C335.4,316.7 333.4,316.4 332.9,315.5 C332.1,314.1 327.2,295.5 326.7,293.5 Z" id="Path" fill="#1EAEF7"></path>
                    <path d="M355,292.9 C355.2,292.4 355.6,291.4 355.5,290.8 C355.4,290.2 354.6,289.9 354.1,290.2 C354,290.3 353.9,290.5 353.8,290.6 C351.7,294.9 350.1,298.6 348.3,302.6 C346.8,306 345.6,308.4 343.8,312.7 C343.2,314.1 345.4,314.2 346,313.3 C347,311.8 354.1,294.9 355,292.9 Z" id="Path" fill="#1EAEF7"></path>
                    <path d="M347.3,287.8 C347.5,287.2 347.8,286.2 347.7,285.7 C347.6,285.4 347.4,285.3 347.1,285.3 C346.8,285.3 346.4,285.3 346.3,285.4 C346.2,285.5 346.1,285.7 346,286 C344,290.4 340.6,300.2 339.2,304.4 C338,307.9 339.3,304.5 337.9,308.9 C337.4,310.4 339.4,310.2 340,309.3 C340.7,308.1 346.6,289.8 347.3,287.8 Z" id="Path" fill="#1EAEF7"></path>
                    <path d="M370.2,288.1 C370.1,287.5 370,286.9 369.5,286.5 C369.1,286.1 368.2,286.2 368,286.7 C367.9,286.9 368,287.1 368,287.2 C368.6,292 369.4,296 370.1,300.3 C370.6,303.2 371,306.2 371.8,309 C371.8,309.1 371.9,309.3 372,309.4 C372.1,309.5 372.2,309.5 372.3,309.6 C374.6,310.3 373.5,307 373.3,305.8 C373,303.9 372.6,302 372.3,300.1 C371.7,296.6 371,293.1 370.4,289.6 C370.4,289.1 370.3,288.6 370.2,288.1 Z" id="Path" fill="#1EAEF7"></path>
                    <path d="M387,288 C386.9,287.4 386.7,286.6 386.3,286.2 C385.9,285.8 384.9,285.9 384.7,286.4 C384.6,286.6 384.7,286.8 384.7,286.9 C385.3,291.7 386.1,295.7 386.8,300 C387.4,303.7 387.8,306.3 388.7,310.8 C389,312.3 390.7,311.2 390.8,310.1 C390.9,308.7 387.3,290.1 387,288 Z" id="Path" fill="#1EAEF7"></path>
                    <path d="M398.2,289.8 C398.4,289.3 398.6,288.7 398.4,288.1 C398.2,287.5 397.5,287.1 397,287.5 C396.9,287.6 396.8,287.8 396.7,288 C394.8,292.4 393.4,296.2 391.8,300.3 C390.5,303.8 389.5,306.2 387.9,310.6 C387.4,312.1 389.4,311.9 390,311 C390.9,309.8 397.4,291.8 398.2,289.8 Z" id="Path" fill="#1EAEF7"></path>
                    <path d="M382,288.8 C382.1,288.2 382.2,287.1 381.9,286.6 C381.6,286.1 380.7,286 380.4,286.5 C380.3,286.6 380.2,286.8 380.2,287 C379.3,291.7 378.7,295.7 378,300.1 C377.4,303.8 376.9,306.4 376.3,311 C376.1,312.5 378.2,312 378.6,311 C379.1,309.5 381.6,290.9 382,288.8 Z" id="Path" fill="#1EAEF7"></path>
                    <path d="M197.6,311.7 C189.8,309.6 181.2,316.4 178.5,326.7 C175.8,337.1 179.9,347.1 187.8,349.2 C195.6,351.3 204.2,344.5 206.9,334.2 C209.6,323.8 205.4,313.7 197.6,311.7 Z M188.7,345.5 C182.4,343.9 179.1,335.8 181.3,327.5 C183.5,319.2 190.3,313.8 196.6,315.4 C202.9,317 206.2,325.1 204,333.4 C201.9,341.7 195,347.1 188.7,345.5 Z" id="Shape" fill="#0062BA"></path>
                    <path d="M235.4,299 C228.1,299 222.2,307.3 222.2,317.5 C222.2,327.7 228.1,336 235.4,336 C242.7,336 248.6,327.7 248.6,317.5 C248.6,307.3 242.6,299 235.4,299 Z M235.4,332.4 C229.6,332.4 224.9,325.8 224.9,317.6 C224.9,309.4 229.6,302.8 235.4,302.8 C241.2,302.8 245.9,309.4 245.9,317.6 C245.9,325.7 241.2,332.4 235.4,332.4 Z" id="Shape" fill="#0062BA"></path>
                    <path d="M238.6,317.8 C238.1,315.2 237.5,312.6 236.8,310 C236.4,308.7 235.1,295.6 235,292.1 C234.9,290.3 234.8,288.5 234.8,286.6 C234.8,285.6 235.2,283.7 234.1,283 C233.4,282.6 233,283 232.4,283.2 C231.4,283.4 230.5,283.2 227.8,282.7 C226.6,282.5 222,282.2 221.2,283.3 C220.8,283.8 220.7,284.7 221.3,285 C221.5,285.1 229,286.5 229,286.5 C229,286.5 228.8,286 230.3,285.9 C230.8,285.9 231.4,285.7 231.7,286.2 C231.9,286.6 231.9,287.3 231.9,287.8 C231.9,289 232,290.1 232,291.3 C232,292 232.1,292.5 231.9,293.2 C231.7,293.8 231.3,294.4 230.9,294.9 C230.1,295.9 229.1,296.8 227.9,297.4 C227.6,297.7 221.5,299.7 218.9,300.6 C215.7,301.6 204.6,305.1 204.2,305.2 C204,305.3 203.8,305.4 203.5,305.3 C203.3,305.2 201.5,301.1 201.7,300.4 C201.9,299.9 202.3,299.6 202.7,299.3 C203.7,298.6 207,296.5 207.5,296 C207.8,295.7 208.1,295.4 208.3,295 C208.5,294.6 208.3,294.1 208,293.9 C207.8,293.8 207.6,293.8 207.4,293.8 C204.4,293.8 201.5,294.1 198.5,294.6 C197.7,294.7 197,294.9 196.3,295.2 C195.4,295.6 194.8,295.9 194.6,297.1 C194.5,298.2 194.8,299.2 195.5,300.1 C196.9,302 199.8,302.3 198.8,305.6 C198.4,306.8 191.6,328.5 191.2,330.5 C191,331.5 191.6,333.2 192.8,333.4 C193.7,333.6 194.7,333.4 195.6,333.2 C197.4,332.9 214.8,328 215.3,327.1 C216.3,325.5 223.3,307.5 224.9,304.9 C226.9,301.7 228.6,300.2 229.3,299.9 C229.4,299.9 229.4,299.9 229.5,299.9 C229.6,299.9 229.6,300 229.7,300.1 C230.6,301.3 235,315.2 236.4,318.4 C236.6,318.8 236.8,319.2 237.1,319.4 C237.6,319.7 238.3,319.5 238.6,319 C238.8,318.8 238.7,318.3 238.6,317.8 Z M199.8,325.2 C198.2,326 197.3,326.5 195.3,327.7 C196.1,323.7 200.1,311.7 200.3,311.3 C200.6,310.3 201.5,310.7 202.3,311.6 C205,314.8 209.9,321.5 210.6,322.4 C206.7,322.6 203.5,323.3 199.8,325.2 Z M213.9,321.2 C213.9,321.3 204.8,309.7 204.9,309.1 C204.9,308.5 206.2,308.3 206.6,308.1 C211.4,306.6 222,303.3 223.4,302.9 C222.1,305.1 215.5,318.5 213.9,321.2 Z" id="Shape" fill="#E23B53"></path>
                    <path d="M267.9,256.5 C267.8,258.7 268.9,260.9 270.7,262.1 C270.8,262.9 270.9,263.8 271,264.6 C268.6,266.2 267.8,269.8 269.5,272.2 C270.2,273.3 271.4,274.4 271,275.6 C270.7,276.5 269.8,276.9 269.2,277.5 C267.9,278.9 268.4,281.3 269.8,282.5 C271.2,283.7 277.4,283.6 277.4,283.6 C280.7,283.6 284,283.8 287.3,283.9 C308.8,284.5 330.3,285.1 351.9,285.7 C363.5,286 375,286.4 386.6,286.7 C394.1,286.9 401.7,287 409.2,287 C410.7,287 412.5,286.6 413.6,285.5 C415.5,283.6 416,280.4 414.4,278.6 C413.6,277.6 412.5,277.2 412.4,275.9 C412.3,274.9 413.1,274.7 413.8,273.9 C415.2,272.3 415.5,271.3 415.4,269.7 C415.3,268.4 414.6,267.3 413.2,266.2 C412.8,265.9 412.4,265.5 412.7,264.8 C412.9,264.4 413.8,263.9 414.2,263.7 C415.3,263 416.4,261.5 416.4,259.4 C416.4,257.5 415.5,254.6 413.5,254.6 C410.1,254.6 405.7,254.4 402.3,254.4 C402.3,254.4 273.3,251.6 270.8,251.8 C268.4,252.2 268,254.4 267.9,256.5 Z" id="Path" fill="#EFEFEF"></path>
                    <path d="M270.6,264.5 C271.5,265.5 273.1,265.5 274.5,265.5 C289.6,265 343.6,267.5 355.6,268 C361.1,268.2 394.3,269.4 396.8,269.5 C398.2,269.6 402.2,269.7 402.2,267.9 C402.2,266.4 401.2,266.1 399.6,266 C395.4,265.7 303.2,261.4 275,261.2 C273.7,261.2 268.5,262.2 270.6,264.5 Z" id="Path" fill="#6A6A6A"></path>
                    <path d="M344.7,278.5 C353.7,278.7 362.8,279.2 371.8,279.6 C375.6,279.8 379.5,279.7 383.3,279.9 C387.8,280.1 392.3,280.1 396.7,280.1 C398.2,280.1 399.1,279.9 399.9,279.6 C400.6,279.3 401.1,277.9 399.8,277.5 C398.6,277.2 396.5,277.1 393.9,276.9 C387.6,276.5 378.8,276.2 376,276.1 C367.6,275.6 359.2,275.2 350.8,274.8 C337,274.1 323.2,273.6 309.4,273.1 C302.5,272.9 295.6,272.6 288.7,272.4 C283.3,272.2 276.8,271.1 271.4,272.6 C269.9,273 268.4,273.9 269.3,275.6 C270.5,277.8 275.5,276.9 277.6,277 C284.5,277.2 291.4,277.4 298.3,277.5 C312.1,277.9 326,278.2 339.8,278.6 C341.4,278.5 343,278.5 344.7,278.5 Z" id="Path" fill="#6A6A6A"></path>
                    <path d="M238.5,344.2 C239,345.1 240.7,345.6 242.2,345.1 C243.9,344.5 246.5,344.3 248.3,343.7 C249.5,343.3 253,341.9 250.8,339.7 C249.8,338.7 247.4,339.1 245.9,339 C244.4,338.9 240.8,337.6 239.4,338 C238.4,338.3 238,338.5 237.9,339.8 C237.8,342.4 238.1,343.4 238.5,344.2 Z" id="Path" fill="#0062BA"></path>
                    <path d="M251.4,343.1 C251.5,344.5 252.5,345.7 254.7,345.7 C255.5,345.7 256.1,345.5 256.9,345.2 C258.4,344.6 260.1,344.9 261.6,344.4 C262.7,344 263.8,343.2 264.3,342.2 C264.5,341.9 264.6,341.6 264.6,341.2 C264.6,340.7 264.4,340.1 263.8,339.8 C263.3,339.6 262.8,339.5 262.1,339.4 C261.4,339.3 260.4,339.4 259.4,339.3 C258.4,339.3 257.1,339.4 256.1,339.4 C254.6,339.5 253,339.6 251.5,339.7 C251.5,339.9 251.3,342.1 251.4,343.1 Z" id="Path" fill="#0062BA"></path>
                    <path d="M258.8,258.3 C259.4,258.6 259.8,258.8 259.9,259.3 C260,259.7 259.6,260.2 259.5,260.5 C259,261.5 259.2,263.3 259,264.4 C258.7,265.6 257.7,266.4 256.7,267.2 C255.2,268.4 254.5,269.8 254.3,271.7 C254.2,272.2 254.3,272.3 253.8,272.6 C252.6,273.1 250.7,273 249.4,273 C249.2,272.3 249.3,272 249.3,271.3 C249.3,270.7 249.1,269.1 249,268.5 C248.6,266.7 247.5,265.3 247.4,263.4 C247.3,260.5 248,254.9 251.2,253.6 C254.1,252.4 256.9,255 258.1,257.5 C258.3,257.9 258.5,258.2 258.8,258.3 Z" id="Path" fill="#6A6A6A"></path>
                    <path d="M255.3,253.7 C255.6,254 255.8,254.3 255.9,254.6 C256.2,255.6 255.7,256.6 255.7,257.6 C255.8,258.4 255.8,258.8 256.2,259.9 C256.5,260.7 256,261.3 255.7,261.2 C255.1,261 254.4,261 254.1,261.4 C253.7,262.1 254,263 254.2,263.6 C254.5,264.5 254.7,266.3 253.2,267.5 C252.1,268.5 250.8,268.7 249,268.5 C246.8,265.8 245.1,263.7 245.1,260.9 C245.1,256.6 247.7,254 251.3,253 C252.2,252.8 253.1,252.7 253.9,252.9 C254.5,253.1 255,253.3 255.3,253.7 Z" id="Path" fill="#3F3161"></path>
                    <path d="M227.2,282.6 C228.2,282.9 227.5,284.9 228.9,286.6 C229.5,287.3 230.3,286.8 230.8,286.9 C232.2,287.1 234.7,284.4 234,282.9 C233.2,281.2 227.4,280.9 227.2,282.6 Z" id="Path" fill="#6A6A6A"></path>
                    <path d="M237.9,339.7 C240.9,339.9 243,339.6 245.9,338.9 C247.4,331.9 250.9,312.5 250.9,312.5 C250.9,312.5 251.6,331.1 251.5,339.7 C251.7,339.7 256.9,339.7 259.4,339.3 C259.6,337.8 261.2,325.3 261.6,318.9 C261.8,315.6 263,303.1 262.6,300.2 C262.6,300 262.5,299.7 262.3,299.5 C262.1,299.4 261.9,299.4 261.7,299.4 C256,299.7 250.3,300.1 244.6,300.7 C241.8,301 241.4,301.5 241.1,304.1 C240.8,307 240.4,309.9 240.1,312.7 C239.5,318.5 239,324.3 238.6,330.2 C238.6,330.9 237.9,339.7 237.9,339.7 Z" id="Path" fill="#3F3161"></path>
                    <path d="M267.4,252.9 C267,253.1 266.7,253.4 266.5,253.8 C266.4,253.9 266.3,254 266.2,254.1 C266.1,254.2 266,254.2 265.9,254.3 C265.8,254.4 265.7,254.5 265.7,254.6 C264.7,256.5 265.7,258.8 266.3,260.7 C266.7,261.9 268.2,261.6 269.2,261.3 C269.5,261.2 270.3,261.1 270.5,260.8 C270.7,260.5 270.6,259.7 270.6,259.4 C270.6,259.1 270.6,258.9 270.6,258.6 C270.7,258.2 270.9,257.8 271.1,257.4 C271.4,256.7 271.6,255.9 271.7,255.1 C271.7,254.3 271.6,253.6 271.2,252.9 C270.8,252.3 270.7,252 269.8,252 C269.3,252 268.9,252.2 268.6,252.3 C268.2,252.4 267.8,252.6 267.4,252.9 Z" id="Path" fill="#6A6A6A"></path>
                    <path d="M241,303.5 C241,303.8 241,304.1 241.2,304.3 C241.3,304.5 241.5,304.6 241.7,304.7 C242.6,305.1 243.3,303.2 244.2,303.3 C249.3,304.1 257.8,302.9 262.7,301.3 C263.5,301.1 263.1,299.7 263,298.2 C262.8,295.3 262.3,283.9 262.7,280.4 C267,280.5 270.1,280.4 273.4,278.6 C275.4,277.5 275.4,274.9 275.1,272.4 C274.5,266.8 272.2,259.1 271.5,259.1 C269.5,259.2 267.6,259.4 265.6,259.8 C265.3,259.9 264.9,259.9 264.7,260.2 C264.5,260.5 264.5,261 264.6,261.4 C265.4,264.9 266,267.3 266.8,270.9 C263.2,270.2 260.8,270.2 257.9,269.7 C254.8,269.3 252.2,269.5 249.2,270 C245.5,270.6 242.4,272.7 241.1,276.3 C240,279.4 239.4,282.6 238,285.6 C236.8,284.6 236,284 234.8,283.1 C234.6,282.9 234.2,282.8 234,282.9 C233.8,283 233.5,283.2 233.2,283.4 C232,284.3 229.9,285.7 228.8,286.7 C228.6,286.8 230.4,291 231.6,292.3 C233.3,294.2 235.3,295.8 237.9,295.7 C238.5,295.7 239,295.6 239.6,295.8 C242.1,296.3 241.1,301.7 241,303.5 Z" id="Path" fill="#1EAEF7"></path>
                    <path d="M257.9,269.7 C257.3,271.4 256.6,273.3 256,275 C254.8,278.7 250.3,288.8 249.4,291.8 C249.2,292.5 248.6,293.4 248.7,294.2 C248.7,294.7 249.1,294.8 249.8,295.1 C251.6,295.9 252,297.2 252.1,297.8 C252.4,301.3 252.6,304.8 252.5,308.3 C252.5,309.2 252.4,310.1 251.7,310.6 C251.4,310.8 250.9,310.9 250.5,311 C248.7,311.3 246.9,311.6 245.1,311.9 C242.3,312.4 239.3,312.8 236.7,311.8 C236.1,311.6 235.5,311.2 235.2,310.6 C235,310.2 235,309.8 235.1,309.3 C235.2,304.9 235.4,300.4 237,296.3 C237.1,296.1 237.2,295.9 237.3,295.8 C237.4,295.7 237.6,295.6 237.8,295.6 C239.1,295.3 240.3,294.9 241.6,294.6 C242.3,294.4 245.3,293.7 245.3,293.7 C245.3,293.7 254.6,270.1 254.9,269.5 C255.3,268.7 258.1,269.4 257.9,269.7 Z" id="Path" fill="#CFF0FF"></path>
                    <path d="M320.5,359.4 C320.5,359.4 314.7,351.9 319,344.8 C323.5,337.3 331.7,342.8 331.7,342.8 C331.7,342.8 330.7,339.4 331.7,336.2 C333.1,331.5 339.7,330.9 343.4,331.5 C347.1,332.1 350.2,335.6 353.7,336.5 C357.3,337.4 361.9,337 363.6,334.2 C365.1,331.8 364,328.5 366.3,326.5 C369,324.2 373.6,325.9 376.8,327.8 C378.5,324.3 380.3,320.7 383.6,318.1 C386.9,315.5 392.1,314.2 396,316.1 C398.9,312.8 404.9,312.7 409.5,314 C412,314.7 415.2,315.6 417.5,316.9 C420,318.4 419.9,320 420.4,323.1 C421.3,328.8 421.5,334.7 421.2,340.5 C420.4,351.9 417.2,363.1 411.7,373.2 C405.9,383.7 396.2,381.4 385.7,381.1 C373.8,380.8 362,380.5 350.1,380.3 C341.2,380.1 332.2,380 323.3,379.9 C318.1,379.8 312.3,379.9 311.2,374.9 C308.2,361.7 320.5,359.4 320.5,359.4 Z" id="Path" fill="#3F3161"></path>
                    <path d="M342,349.8 C341.9,350 341.7,350.6 342.2,350.9 C342.6,351.2 343.2,351.1 343.5,350.7 C344.3,349.8 342.7,348.8 342,349.8 Z" id="Path" fill="#E23B53"></path>
                    <path d="M345,360.9 C345.7,361.4 346.5,361.2 347,360.5 C347.4,359.9 347.4,359.1 346.8,358.7 C345.1,357.6 343.6,359.8 345,360.9 Z" id="Path" fill="#E23B53"></path>
                    <path d="M352.7,345.2 C351.9,345.8 352.1,347.1 352.7,347.4 C353.4,347.8 354.5,347.7 354.9,347.1 C355.8,345.6 354,344.3 352.7,345.2 Z" id="Path" fill="#E23B53"></path>
                    <path d="M344.9,341 C344.3,340.6 343.3,340.9 342.8,341.5 C342.3,342.1 342.5,343.1 343.1,343.5 C343.8,343.9 344.8,343.8 345.3,343.2 C345.8,342.5 345.6,341.4 344.9,341 Z" id="Path" fill="#E23B53"></path>
                    <path d="M331.5,361 C332.2,361.5 333.3,361.4 333.7,360.7 C334,360.1 333.9,359.1 333.3,358.8 C331.5,357.6 330.3,360.2 331.5,361 Z" id="Path" fill="#E23B53"></path>
                    <path d="M338.9,367.1 C338.2,366.8 337.4,366.9 337,367.5 C336.8,367.8 336.4,369 337.3,369.5 C338,369.9 339,369.8 339.5,369.2 C340,368.6 339.6,367.5 338.9,367.1 Z" id="Path" fill="#E23B53"></path>
                    <path d="M401.6,317.9 C401.4,318.2 401.1,319.4 401.9,319.9 C402.6,320.3 403.5,320.2 404.1,319.6 C405.3,318.2 402.9,316.4 401.6,317.9 Z" id="Path" fill="#E23B53"></path>
                    <path d="M358.7,352.7 C357.9,353.5 357.5,354.7 358,355.7 C358.1,356 358.3,356.2 358.5,356.3 C358.8,356.5 359.2,356.5 359.6,356.4 C360.6,356.2 361.5,355.6 362.1,354.8 C362.3,354.5 362.4,354.2 362.4,353.9 C362.5,352.3 359.7,351.7 358.7,352.7 Z" id="Path" fill="#E23B53"></path>
                    <path d="M395.3,321 C394.7,321.1 394.2,321.7 394.4,322.2 C394.7,323.6 396.6,323.3 396.9,322.6 C397.1,321.9 396.6,320.8 395.3,321 Z" id="Path" fill="#E23B53"></path>
                    <path d="M401.3,324.3 C400.8,324.5 400.3,324.9 400.4,325.5 C400.5,326.1 401.2,326.4 401.8,326.5 C402.8,326.7 403.5,326 403.5,325.5 C403.5,324.9 402.8,323.8 401.3,324.3 Z" id="Path" fill="#E23B53"></path>
                </g>
            </g>
        </g>
    </g>
</svg>