<?xml version="1.0" encoding="UTF-8"?>
<svg width="223px" height="223px" viewBox="0 0 223 223" version="1.1" xmlns="http://www.w3.org/2000/svg" xmlns:xlink="http://www.w3.org/1999/xlink" style="background: #01AEF9;">
    <!-- Generator: Sketch 47.1 (45422) - http://www.bohemiancoding.com/sketch -->
    <title>Artboard</title>
    <desc>Created with Sketch.</desc>
    <defs></defs>
    <g id="Page-1" stroke="none" stroke-width="1" fill="none" fill-rule="evenodd">
        <g id="Artboard" fill-rule="nonzero" fill="#FFFFFF">
            <g id="closedmessage" transform="translate(55.000000, 74.000000)">
                <path d="M0,0 L0,76 L114,76 L114,0 L0,0 Z M62.7,39.9 C58.9,43.225 53.675,43.225 49.875,39.9 L16.625,9.5 L96.425,9.5 L62.7,39.9 Z M33.725,38 L9.025,60.8 L9.025,15.675 L33.725,38 Z M40.85,44.65 L43.7,47.025 C47.5,50.35 51.775,51.775 56.525,51.775 C61.275,51.775 65.55,50.35 69.35,47.025 L72.2,44.65 L96.425,66.5 L17.1,66.5 C17.1,66.5 41.325,44.65 40.85,44.65 Z M79.325,38 L104.025,15.2 L104.025,60.325 L79.325,38 L79.325,38 Z" id="Layer_1_1_"></path>
            </g>
        </g>
    </g>
</svg>