<svg id="Layer_1" data-name="Layer 1" xmlns="http://www.w3.org/2000/svg" viewBox="0 0 120 90"><defs><style>.cls-1{fill:#1eaef7;}.cls-2{fill:#fff;}.cls-3,.cls-7{fill:#6a6a6a;}.cls-4,.cls-5{fill:none;stroke:#000;stroke-miterlimit:10;}.cls-5{stroke-dasharray:1 1;}.cls-6{fill:#bcc7cc;}.cls-7{fill-rule:evenodd;}</style></defs><title>Accordian for seksjonsside</title><rect class="cls-1" width="120" height="90"/><rect class="cls-2" x="5.79" y="6" width="108" height="84"/><rect class="cls-3" x="14" y="15" width="92" height="1"/><rect class="cls-3" x="14" y="50" width="92" height="1"/><circle cx="18.5" cy="22.5" r="4.5"/><rect x="26" y="22" width="29" height="2"/><rect x="26.5" y="29.5" width="44" height="0.01"/><polyline class="cls-4" points="70 29.5 70.5 29.5 70.5 29.51 70 29.51"/><line class="cls-5" x1="69" y1="29.51" x2="27.5" y2="29.51"/><polyline class="cls-4" points="27 29.51 26.5 29.51 26.5 29.5 27 29.5"/><line class="cls-5" x1="28" y1="29.5" x2="69.5" y2="29.5"/><rect x="26.5" y="33.5" width="44" height="0.01"/><polyline class="cls-4" points="70 33.5 70.5 33.5 70.5 33.51 70 33.51"/><line class="cls-5" x1="69" y1="33.51" x2="27.5" y2="33.51"/><polyline class="cls-4" points="27 33.51 26.5 33.51 26.5 33.5 27 33.5"/><line class="cls-5" x1="28" y1="33.5" x2="69.5" y2="33.5"/><rect x="26.5" y="37.5" width="44" height="0.01"/><polyline class="cls-4" points="70 37.5 70.5 37.5 70.5 37.51 70 37.51"/><line class="cls-5" x1="69" y1="37.51" x2="27.5" y2="37.51"/><polyline class="cls-4" points="27 37.51 26.5 37.51 26.5 37.5 27 37.5"/><line class="cls-5" x1="28" y1="37.5" x2="69.5" y2="37.5"/><rect x="26" y="41" width="21" height="1"/><path d="M52,41.45a.24.24,0,0,1-.07.18l-1.25,1.25a.25.25,0,0,1-.18.07.24.24,0,0,1-.17-.07l-.14-.14a.25.25,0,0,1,0-.35l.56-.39H49.39a.55.55,0,0,0-.16-.25.44.44,0,0,0-.23-.17v-.25a.44.44,0,0,0,.23-.17s.1-.07.16-.16h1.35l-.56-.48a.24.24,0,0,1,0-.35l.14-.14A.24.24,0,0,1,50.5,40a.24.24,0,0,1,.18.07l1.25,1.25A.23.23,0,0,1,52,41.45Z"/><path class="cls-2" d="M20,22.54l-1.35,1.35a.11.11,0,0,1-.16,0l-.3-.3a.11.11,0,0,1,0-.16l1-1-1-1a.11.11,0,0,1,0-.16l.3-.3a.11.11,0,0,1,.16,0L20,22.38a.11.11,0,0,1,0,.16Z"/><circle class="cls-6" cx="92.5" cy="32.5" r="10.5"/><circle cx="18.5" cy="58.5" r="4.5"/><rect x="26" y="57" width="29" height="2"/><path class="cls-2" d="M20,58.54l-1.35,1.35a.11.11,0,0,1-.16,0l-.3-.3a.11.11,0,0,1,0-.16l1-1-1-1a.11.11,0,0,1,0-.16l.3-.3a.11.11,0,0,1,.16,0L20,58.38a.11.11,0,0,1,0,.16Z"/><rect class="cls-3" x="14" y="65" width="92" height="1"/><circle cx="18.5" cy="73.5" r="4.5"/><rect x="26" y="72" width="39" height="2"/><path class="cls-2" d="M20,73.54l-1.35,1.35a.11.11,0,0,1-.16,0l-.3-.3a.11.11,0,0,1,0-.16l1-1-1-1a.11.11,0,0,1,0-.16l.3-.3a.11.11,0,0,1,.16,0L20,73.38a.11.11,0,0,1,0,.16Z"/><rect class="cls-3" x="14" y="80" width="92" height="1"/><circle class="cls-3" cx="88.5" cy="28.5" r="2.5"/><path class="cls-7" d="M85,39.77l2-3,1,2,3-4,2,3,6-6,3.7,3s-3.2,6.66-7.64,7.41C95.06,42.18,90.87,42.94,85,39.77Z"/></svg>