<svg id="Layer_1" data-name="Layer 1" xmlns="http://www.w3.org/2000/svg" viewBox="0 0 120 90"><defs><style>.cls-1{fill:#17c96b;}.cls-2{fill:#fff;}.cls-3{fill:#6a6a6a;}</style></defs><title>Budsjettblokk</title><rect class="cls-1" width="120" height="90"/><rect class="cls-2" x="6" y="6" width="108" height="84"/><rect class="cls-3" x="14" y="57" width="92" height="1"/><rect x="14" y="34" width="15" height="1"/><rect x="14" y="40" width="38" height="1"/><rect x="14" y="46" width="29" height="1"/><rect x="14" y="52" width="35" height="1"/><rect x="14" y="62" width="49" height="1"/><rect x="79" y="33" width="1" height="3"/><rect x="81" y="33" width="2" height="3"/><rect x="84" y="33" width="2" height="3"/><rect x="89" y="33" width="2" height="3"/><rect x="92" y="33" width="2" height="3"/><rect x="95" y="33" width="2" height="3"/><rect x="79" y="39" width="1" height="3"/><rect x="81" y="39" width="2" height="3"/><rect x="86" y="39" width="2" height="3"/><rect x="89" y="39" width="2" height="3"/><rect x="92" y="39" width="2" height="3"/><rect x="79" y="45" width="1" height="3"/><rect x="81" y="45" width="2" height="3"/><rect x="86" y="45" width="2" height="3"/><rect x="89" y="45" width="2" height="3"/><rect x="92" y="45" width="2" height="3"/><rect x="79" y="51" width="1" height="3"/><rect x="82" y="51" width="2" height="3"/><rect x="85" y="51" width="2" height="3"/><rect x="88" y="51" width="2" height="3"/><rect x="79" y="60" width="1" height="3"/><rect x="81" y="60" width="2" height="3"/><rect x="84" y="60" width="2" height="3"/><rect x="89" y="60" width="2" height="3"/><rect x="92" y="60" width="2" height="3"/><rect x="95" y="60" width="2" height="3"/></svg>