<svg id="Layer_1" data-name="Layer 1" xmlns="http://www.w3.org/2000/svg" viewBox="0 0 120 90"><defs><style>.cls-1{fill:#6a6a6a;}.cls-2{fill:#fff;}</style></defs><title>Sammenlikningsblokk</title><rect class="cls-1" width="120" height="90"/><rect class="cls-2" x="6" y="6" width="108" height="84"/><rect class="cls-1" x="14" y="31" width="92" height="1"/><rect x="18" y="25" width="40" height="3"/><rect x="18" y="40" width="27" height="2"/><rect x="64" y="40" width="26.98" height="2"/><rect x="18" y="45" width="40" height="1"/><rect class="cls-1" x="40.5" y="50.5" width="40" height="1" transform="translate(111.5 -9.5) rotate(90)"/><rect x="18" y="49" width="38" height="1"/><rect x="18" y="53" width="40" height="1"/><rect x="18" y="57" width="38" height="1"/><rect x="18" y="62" width="40" height="1"/><rect x="18" y="66" width="19.53" height="1"/><rect x="64" y="45" width="40" height="1"/><rect x="64" y="49" width="38" height="1"/><rect x="64" y="53" width="40" height="1"/><rect x="64" y="57" width="38" height="1"/><rect x="64" y="62" width="20" height="1"/></svg>