<svg id="Layer_1" data-name="Layer 1" xmlns="http://www.w3.org/2000/svg" viewBox="0 0 120 90"><defs><style>.cls-1,.cls-4{fill:#6a6a6a;}.cls-2{fill:#fff;}.cls-3{fill:#bcc7cc;}.cls-4{fill-rule:evenodd;}.cls-5{fill:none;stroke:#000;stroke-miterlimit:10;stroke-width:0.5px;}</style></defs><title>Trenger du hjelp blokk</title><rect class="cls-1" width="120" height="90"/><rect class="cls-2" x="6" y="6" width="108" height="84"/><circle class="cls-3" cx="34" cy="42" r="14"/><circle class="cls-1" cx="28.5" cy="36.5" r="3.5"/><path class="cls-4" d="M24,51l2.67-4L28,49.67l4-5.33,2.67,4,8-8,4.93,4S47,51,37,55C37,55,27,56,24,51Z"/><rect x="54" y="31" width="30" height="3"/><rect x="54" y="38" width="45" height="1"/><rect x="54" y="43" width="33" height="1"/><rect x="54" y="47" width="38" height="1"/><rect x="54" y="52" width="43" height="1"/><rect x="54" y="56" width="9" height="1"/><circle class="cls-5" cx="80" cy="64" r="1.5" transform="translate(-18.52 92.09) rotate(-54.57)"/><rect x="54" y="63" width="1" height="3"/><rect x="56" y="62" width="1" height="4"/><rect x="57" y="63" width="1" height="3"/><rect x="59" y="64" width="13" height="1"/><rect x="83" y="64" width="16" height="1"/></svg>