<svg id="Layer_1" data-name="Layer 1" xmlns="http://www.w3.org/2000/svg" viewBox="0 0 120 90"><defs><style>.cls-1{fill:#6a6a6a;}.cls-2{fill:#fff;}.cls-3{fill:#bcc7cc;}</style></defs><title>Link blokk</title><rect class="cls-1" width="120" height="90"/><rect class="cls-2" x="6" y="6" width="108" height="84"/><rect class="cls-3" x="14" y="34" width="92" height="28"/><rect x="39" y="40" width="16" height="1"/><rect x="39" y="44" width="61" height="2"/><rect x="39" y="49" width="44.73" height="2"/><rect x="39" y="54" width="51.51" height="2"/><path d="M30.51,51.19l-.66,0H28a.19.19,0,0,1-.14-.06,1.72,1.72,0,0,1,0-1,.35.35,0,0,1,.19-.05l.3,0H29V49H25.83a3.78,3.78,0,0,1-1,2.42,2.16,2.16,0,0,1-3.19,0,3.6,3.6,0,0,1-1-1.77,4.67,4.67,0,0,1,0-2.15,3.6,3.6,0,0,1,.94-1.77,2.16,2.16,0,0,1,3.19,0,7.19,7.19,0,0,1,1,2.27h5.82s.3-.09.42,0a.84.84,0,0,1,0,1c-.11.12-.25.17-.42-.07H30v1.08c-.23,0-.16,0,0,0h.64a.35.35,0,0,1,.19.05,1.72,1.72,0,0,1,0,1A.73.73,0,0,1,30.51,51.19Zm-6.46-2.33a1.2,1.2,0,0,0-.44-.28A1.2,1.2,0,0,0,24,48.3a1.18,1.18,0,1,0-1.67,0,1.2,1.2,0,0,0,.44.28,1.2,1.2,0,0,0-.44.28,1.18,1.18,0,1,0,1.67,0Z"/></svg>