<svg id="Layer_1" data-name="Layer 1" xmlns="http://www.w3.org/2000/svg" viewBox="0 0 120 90"><defs><style>.cls-1{fill:#17c96b;}.cls-2{fill:#fff;}.cls-3{fill:#bcc7cc;}</style></defs><title>Side-sitat</title><rect class="cls-1" width="120" height="90"/><rect class="cls-2" x="6" y="6" width="108" height="84"/><rect class="cls-3" x="35.5" y="51.5" width="40" height="1" transform="translate(107.5 -3.5) rotate(90)"/><rect x="60" y="32" width="43" height="2"/><rect x="60" y="36" width="40" height="2"/><rect x="60" y="40" width="43" height="2"/><rect x="60" y="44" width="40" height="2"/><rect x="60.04" y="48" width="43.96" height="2"/><rect x="60" y="52" width="44" height="2"/><rect x="60" y="56" width="44" height="2"/><rect x="60" y="60" width="33" height="2"/><rect x="60" y="66" width="26" height="3"/><path d="M25,25.6v4.06a2.31,2.31,0,0,1-.48,1.48,2.2,2.2,0,0,1-1.77.85H18.33a2.31,2.31,0,0,1-1.48-.48A2.2,2.2,0,0,1,16,29.75V22.06a5.57,5.57,0,0,1,.34-2,6.12,6.12,0,0,1,1.54-2.31,6.9,6.9,0,0,1,3.06-1.62,5.22,5.22,0,0,1,1.3-.14h1a.79.79,0,0,1,.56.22.7.7,0,0,1,.24.53v1.5a.7.7,0,0,1-.24.53.79.79,0,0,1-.56.22h-.95a4.43,4.43,0,0,0-2.12.73A4.77,4.77,0,0,0,19,21.85v.38c.25.31.36.58.58.8a2.57,2.57,0,0,1,.8,1H23a1,1,0,0,1,1.59,0A2.75,2.75,0,0,1,25,25.6Zm11,0v4.06a2.31,2.31,0,0,1-.48,1.48,2.2,2.2,0,0,1-1.77.85H29.33a2.31,2.31,0,0,1-1.48-.48A2.2,2.2,0,0,1,27,29.75V22.06a5.57,5.57,0,0,1,.34-2,6.12,6.12,0,0,1,1.54-2.31,6.9,6.9,0,0,1,3.06-1.62,5.22,5.22,0,0,1,1.3-.14h1a.79.79,0,0,1,.56.22.7.7,0,0,1,.24.53v1.5a.7.7,0,0,1-.24.53.79.79,0,0,1-.56.22H32.75a4.43,4.43,0,0,0-2.12.73A2,2,0,0,0,30,21.85v.38a.54.54,0,0,0,.08.8,2.57,2.57,0,0,1,.8,1H33.5a1,1,0,0,1,1.59,0A6.46,6.46,0,0,1,36,25.6Z"/></svg>