<svg id="Layer_1" data-name="Layer 1" xmlns="http://www.w3.org/2000/svg" viewBox="0 0 120 90"><defs><style>.cls-1{fill:#17c96b;}.cls-2,.cls-5{fill:#fff;}.cls-3,.cls-4{fill:#6a6a6a;}.cls-4,.cls-5,.cls-6{stroke:#fff;stroke-miterlimit:10;}.cls-4{stroke-width:0.75px;}</style></defs><title>Artikkel jumbo</title><rect class="cls-1" width="120" height="90"/><rect class="cls-2" x="6" y="6" width="108.07" height="84"/><rect class="cls-3" x="6" y="6" width="108" height="51"/><g id="Desktop"><g id="altinn-logo-blue"><g id="altinn"><path id="Shape" class="cls-2" d="M23,14v.33a2.81,2.81,0,0,1-.86.21.75.75,0,0,1-.56-.19.7.7,0,0,1-.18-.49c0-.35.75-.85.75-.85H22v.11c.66-.24.54-.34.25-.34a.47.47,0,0,0-.42.18l-.35-.34a.92.92,0,0,1,.79-.3c.61,0,.73.77.73.77V14h0Zm0,0h-.43c-.2,0-.31.09-.31.25s.1.25.31.25a.43.43,0,0,0,.34-.1.36.36,0,0,0,.08-.28V14Z"/><path id="Shape-2" data-name="Shape" class="cls-2" d="M24.3,14c-.45.52-1.3-.11-1.3-.11V11h1v2.86a1,1,0,0,0,.4.14h-.1Z"/><path id="Shape-3" data-name="Shape" class="cls-2" d="M25.63,14c-.44.52-1.63-.11-1.63-.11V13h1V12h0v1h0V12h1v1h0v.86c-.46.13-.27.14-.27.14h-.1Z"/><path id="Shape-4" data-name="Shape" class="cls-2" d="M26,12V11h1v1H26Zm0,2V12h1v2H26Z"/><path id="Shape-5" data-name="Shape" class="cls-2" d="M29,14v-.8c-.37-.3-.55-.4-.73-.4s-.27.4-.27.4V14H27V12h1v.53c0-.15.24-.23.44-.23a.71.71,0,0,1,.52.19.43.43,0,0,1,0,.62V14h0Z"/><path id="Shape-6" data-name="Shape" class="cls-2" d="M31,14v-.8a.44.44,0,0,0-.43-.4c-.17,0-1.57.4-1.57.4V14h1V12h0v.53a1.87,1.87,0,0,1,.74-.23.71.71,0,0,1,.52.19c.18.18.22.38-.25.62V14h0Z"/></g><g id="logoelement"><rect id="Rectangle-35" class="cls-2" x="18" y="11" width="2" height="1"/><rect id="Rectangle-35-2" data-name="Rectangle-35" class="cls-2" x="18" y="13" width="2" height="1"/><rect id="Rectangle-35-3" data-name="Rectangle-35" class="cls-2" x="18" y="14" width="2" height="1"/><rect id="Rectangle-35-4" data-name="Rectangle-35" class="cls-2" x="11" y="11" width="1" height="1"/><rect id="Rectangle-35-5" data-name="Rectangle-35" class="cls-2" x="11" y="13" width="1" height="1"/><rect id="Rectangle-35-6" data-name="Rectangle-35" class="cls-2" x="11" y="14" width="1" height="1"/><rect id="Rectangle-35-7" data-name="Rectangle-35" class="cls-2" x="13" y="11" width="1" height="1"/><rect id="Rectangle-35-8" data-name="Rectangle-35" class="cls-2" x="13" y="13" width="1" height="1"/><rect id="Rectangle-35-9" data-name="Rectangle-35" class="cls-2" x="13" y="14" width="1" height="1"/><polygon id="Rectangle-32" class="cls-2" points="14 11 17 11 17 13 16 13 16 12 14 12 14 11"/><rect id="Rectangle-32-2" data-name="Rectangle-32" class="cls-2" x="15" y="13" width="1" height="1"/><polygon id="Rectangle-32-3" data-name="Rectangle-32" class="cls-2" points="14 13 15 13 15 14 17 14 17 15 14 15 14 13"/></g></g></g><circle class="cls-4" cx="106" cy="13" r="2.5" transform="translate(-0.75 9.9) rotate(-5.33)"/><rect class="cls-2" x="23" y="32" width="69.4" height="1"/><rect class="cls-2" x="23" y="27" width="31" height="2"/><rect class="cls-2" x="23" y="22" width="9" height="2"/><rect class="cls-2" x="37" y="12" width="9" height="2"/><rect class="cls-2" x="50" y="12" width="9" height="2"/><rect class="cls-2" x="63" y="12" width="9" height="2"/><rect class="cls-2" x="86" y="12" width="8" height="1"/><rect class="cls-2" x="95" y="12" width="6" height="1"/><rect x="32" y="72" width="25" height="2"/><rect x="32" y="76" width="55" height="1"/><rect class="cls-2" x="36" y="22" width="9" height="2"/><rect class="cls-2" x="49" y="22" width="9" height="2"/><rect class="cls-2" x="62" y="22" width="22" height="2"/><line class="cls-5" x1="33" y1="24" x2="34" y2="22"/><line class="cls-5" x1="46" y1="24" x2="47" y2="22"/><line class="cls-6" x1="59" y1="24" x2="60" y2="22"/><rect class="cls-2" x="23" y="35" width="71.64" height="1"/><rect class="cls-2" x="23" y="38" width="75" height="1"/><rect class="cls-2" x="23" y="41" width="68.28" height="1"/><rect class="cls-2" x="23" y="44" width="22" height="1"/><rect x="32" y="61" width="54" height="1"/><rect x="32" y="64" width="55" height="1"/><rect x="32" y="79" width="29" height="1"/><rect x="32" y="82" width="27" height="1"/><rect x="32" y="85" width="29" height="0.54"/><rect x="32" y="67" width="52" height="1"/></svg>