<svg id="Layer_1" data-name="Layer 1" xmlns="http://www.w3.org/2000/svg" viewBox="0 0 120 90"><defs><style>.cls-1{fill:#e23b53;}.cls-11,.cls-2{fill:#fff;}.cls-3{fill:#bcc7cc;}.cls-4{fill:#231f20;}.cls-10,.cls-5,.cls-6,.cls-7,.cls-9{fill:none;}.cls-10,.cls-11,.cls-5,.cls-6,.cls-7{stroke:#000;}.cls-10,.cls-11,.cls-5,.cls-6,.cls-7,.cls-9{stroke-miterlimit:10;}.cls-5{stroke-width:0.75px;}.cls-7{stroke-dasharray:0.99 0.99;}.cls-8{fill:#6a6a6a;}.cls-9{stroke:#6a6a6a;}.cls-10,.cls-11{stroke-width:0.5px;}</style></defs><title>Skjemaoversikt</title><rect class="cls-1" width="120" height="90"/><rect class="cls-2" x="6" y="6" width="108" height="84"/><rect class="cls-3" x="11" y="38" width="48" height="37"/><g id="Desktop"><g id="altinn-logo-blue"><g id="altinn"><path id="Shape" class="cls-4" d="M23,14v.33a2.81,2.81,0,0,1-.86.21.75.75,0,0,1-.56-.19.7.7,0,0,1-.18-.49c0-.35.75-.85.75-.85H22v.11c.66-.24.54-.34.25-.34a.47.47,0,0,0-.42.18l-.35-.34a.92.92,0,0,1,.79-.3c.61,0,.73.77.73.77V14h0Zm0,0h-.43c-.2,0-.31.09-.31.25s.1.25.31.25a.43.43,0,0,0,.34-.1.36.36,0,0,0,.08-.28V14Z"/><path id="Shape-2" data-name="Shape" class="cls-4" d="M24.3,14c-.45.52-1.3-.11-1.3-.11V11h1v2.86a1,1,0,0,0,.4.14h-.1Z"/><path id="Shape-3" data-name="Shape" class="cls-4" d="M25.63,14c-.44.52-1.63-.11-1.63-.11V13h1V12h0v1h0V12h1v1h0v.86c-.46.13-.27.14-.27.14h-.1Z"/><path id="Shape-4" data-name="Shape" class="cls-4" d="M26,12V11h1v1H26Zm0,2V12h1v2H26Z"/><path id="Shape-5" data-name="Shape" class="cls-4" d="M29,14v-.8c-.37-.3-.55-.4-.73-.4s-.27.4-.27.4V14H27V12h1v.53c0-.15.24-.23.44-.23a.71.71,0,0,1,.52.19.43.43,0,0,1,0,.62V14h0Z"/><path id="Shape-6" data-name="Shape" class="cls-4" d="M31,14v-.8a.44.44,0,0,0-.43-.4c-.17,0-1.57.4-1.57.4V14h1V12h0v.53a1.87,1.87,0,0,1,.74-.23.71.71,0,0,1,.52.19c.18.18.22.38-.25.62V14h0Z"/></g><g id="logoelement"><rect id="Rectangle-35" class="cls-4" x="18" y="11" width="2" height="1"/><rect id="Rectangle-35-2" data-name="Rectangle-35" class="cls-4" x="18" y="13" width="2" height="1"/><rect id="Rectangle-35-3" data-name="Rectangle-35" class="cls-4" x="18" y="14" width="2" height="1"/><rect id="Rectangle-35-4" data-name="Rectangle-35" class="cls-4" x="11" y="11" width="1" height="1"/><rect id="Rectangle-35-5" data-name="Rectangle-35" class="cls-4" x="11" y="13" width="1" height="1"/><rect id="Rectangle-35-6" data-name="Rectangle-35" class="cls-4" x="11" y="14" width="1" height="1"/><rect id="Rectangle-35-7" data-name="Rectangle-35" class="cls-4" x="13" y="11" width="1" height="1"/><rect id="Rectangle-35-8" data-name="Rectangle-35" class="cls-4" x="13" y="13" width="1" height="1"/><rect id="Rectangle-35-9" data-name="Rectangle-35" class="cls-4" x="13" y="14" width="1" height="1"/><polygon id="Rectangle-32" class="cls-4" points="14 11 17 11 17 13 16 13 16 12 14 12 14 11"/><rect id="Rectangle-32-2" data-name="Rectangle-32" class="cls-4" x="15" y="13" width="1" height="1"/><polygon id="Rectangle-32-3" data-name="Rectangle-32" class="cls-4" points="14 13 15 13 15 14 17 14 17 15 14 15 14 13"/></g></g></g><circle class="cls-5" cx="106" cy="13" r="2.5" transform="translate(-0.75 9.9) rotate(-5.33)"/><rect x="37" y="12" width="9" height="2"/><rect x="50" y="12" width="9" height="2"/><rect x="63" y="12" width="9" height="2"/><rect x="86" y="12" width="8" height="1"/><rect x="95" y="12" width="6" height="1"/><rect class="cls-5" x="42.5" y="20.5" width="38" height="6"/><path d="M79.06,25.25a.26.26,0,0,1-.26.26.24.24,0,0,1-.18-.08l-.69-.69a1.42,1.42,0,0,1-1.36.14,1.39,1.39,0,0,1-.76-.76,1.42,1.42,0,0,1,0-1.11,1.39,1.39,0,0,1,.76-.76,1.42,1.42,0,0,1,1.11,0,1.39,1.39,0,0,1,.76.76,1.42,1.42,0,0,1-.14,1.36l.69.69A.25.25,0,0,1,79.06,25.25Zm-1.3-1a.9.9,0,1,0-.64.27A.87.87,0,0,0,77.76,24.21Z"/><rect x="15" y="41" width="16" height="1"/><rect x="15" y="44" width="30" height="1"/><rect x="15" y="32" width="31" height="2"/><rect x="97" y="32" width="8" height="1"/><rect x="64.5" y="48.5" width="43.5" height="0.01"/><polyline class="cls-6" points="107.5 48.51 108 48.51 108 48.5 107.5 48.5"/><line class="cls-7" x1="106.51" y1="48.5" x2="65.49" y2="48.5"/><polyline class="cls-6" points="65 48.5 64.5 48.5 64.5 48.51 65 48.51"/><line class="cls-7" x1="65.99" y1="48.51" x2="107.01" y2="48.51"/><rect x="64.5" y="51.5" width="43.5" height="0.01"/><polyline class="cls-6" points="107.5 51.51 108 51.51 108 51.5 107.5 51.5"/><line class="cls-7" x1="106.51" y1="51.5" x2="65.49" y2="51.5"/><polyline class="cls-6" points="65 51.5 64.5 51.5 64.5 51.51 65 51.51"/><line class="cls-7" x1="65.99" y1="51.51" x2="107.01" y2="51.51"/><rect x="64.5" y="54.5" width="43.5" height="0.01"/><polyline class="cls-6" points="107.5 54.51 108 54.51 108 54.5 107.5 54.5"/><line class="cls-7" x1="106.51" y1="54.5" x2="65.49" y2="54.5"/><polyline class="cls-6" points="65 54.5 64.5 54.5 64.5 54.51 65 54.51"/><line class="cls-7" x1="65.99" y1="54.51" x2="107.01" y2="54.51"/><rect x="64.5" y="57.5" width="43.5" height="0.01"/><polyline class="cls-6" points="107.5 57.51 108 57.51 108 57.5 107.5 57.5"/><line class="cls-7" x1="106.51" y1="57.5" x2="65.49" y2="57.5"/><polyline class="cls-6" points="65 57.5 64.5 57.5 64.5 57.51 65 57.51"/><line class="cls-7" x1="65.99" y1="57.51" x2="107.01" y2="57.51"/><rect class="cls-8" x="78" y="30" width="15" height="5"/><rect class="cls-9" x="93.5" y="30.5" width="15" height="4"/><rect class="cls-2" x="81" y="32" width="10" height="1"/><rect class="cls-8" x="11" y="37" width="98" height="1"/><rect x="64" y="43" width="16" height="2"/><rect x="64.5" y="60.5" width="43.5" height="0.01"/><polyline class="cls-6" points="107.5 60.51 108 60.51 108 60.5 107.5 60.5"/><line class="cls-7" x1="106.51" y1="60.5" x2="65.49" y2="60.5"/><polyline class="cls-6" points="65 60.5 64.5 60.5 64.5 60.51 65 60.51"/><line class="cls-7" x1="65.99" y1="60.51" x2="107.01" y2="60.51"/><rect x="64.5" y="63.5" width="43.5" height="0.01"/><polyline class="cls-6" points="107.5 63.51 108 63.51 108 63.5 107.5 63.5"/><line class="cls-7" x1="106.51" y1="63.5" x2="65.49" y2="63.5"/><polyline class="cls-6" points="65 63.5 64.5 63.5 64.5 63.51 65 63.51"/><line class="cls-7" x1="65.99" y1="63.51" x2="107.01" y2="63.51"/><rect x="64.5" y="66.5" width="43.5" height="0.01"/><polyline class="cls-6" points="107.5 66.51 108 66.51 108 66.5 107.5 66.5"/><line class="cls-7" x1="106.51" y1="66.5" x2="65.49" y2="66.5"/><polyline class="cls-6" points="65 66.5 64.5 66.5 64.5 66.51 65 66.51"/><line class="cls-7" x1="65.99" y1="66.51" x2="107.01" y2="66.51"/><rect class="cls-8" x="11" y="75" width="98" height="1"/><rect class="cls-5" x="19.5" y="81.5" width="24" height="4"/><path d="M42,84.35a.1.1,0,0,1-.1.1.09.09,0,0,1-.07,0l-.26-.26a.52.52,0,0,1-.5.05.51.51,0,0,1-.28-.28.52.52,0,0,1,0-.41.51.51,0,0,1,.28-.28.52.52,0,0,1,.41,0,.51.51,0,0,1,.28.28.53.53,0,0,1-.05.5l.26.26A.09.09,0,0,1,42,84.35ZM41.52,84a.33.33,0,1,0-.24.1A.32.32,0,0,0,41.52,84Z"/><rect x="51" y="83" width="14" height="1"/><rect x="73" y="83" width="10" height="0.85"/><rect x="92.05" y="83" width="10.95" height="0.92"/><circle class="cls-10" cx="70" cy="84" r="1.5" transform="translate(-39.02 92.35) rotate(-54.57)"/><rect class="cls-11" x="87.5" y="82.5" width="3" height="3"/><rect x="47" y="83" width="1" height="3"/><rect x="48" y="82" width="1" height="4"/><rect x="49" y="83" width="1" height="3"/><rect x="15" y="49" width="16" height="1"/><rect x="15" y="52" width="30" height="1"/><rect x="15" y="57" width="16" height="1"/><rect x="15" y="60" width="30" height="1"/><rect x="15" y="65" width="16" height="1"/><rect x="15" y="68" width="30" height="1"/></svg>