<svg id="Layer_1" data-name="Layer 1" xmlns="http://www.w3.org/2000/svg" viewBox="0 0 120 90"><defs><style>.cls-1{fill:#3f3161;}.cls-2{fill:#fff;}.cls-3{fill:#231f20;}.cls-4,.cls-7,.cls-8{fill:none;}.cls-4,.cls-5,.cls-7,.cls-8{stroke:#000;stroke-miterlimit:10;}.cls-4{stroke-width:0.75px;}.cls-6{fill:#bcc7cc;}.cls-8{stroke-dasharray:1 1;}</style></defs><title>Skjemaartikkel vedlegg</title><rect class="cls-1" width="120" height="90"/><rect class="cls-2" x="6" y="6" width="108.07" height="84"/><g id="Desktop"><g id="altinn-logo-blue"><g id="altinn"><path id="Shape" class="cls-3" d="M23,14v.33a2.81,2.81,0,0,1-.86.21.75.75,0,0,1-.56-.19.7.7,0,0,1-.18-.49c0-.35.75-.85.75-.85H22v.11c.66-.24.54-.34.25-.34a.47.47,0,0,0-.42.18l-.35-.34a.92.92,0,0,1,.79-.3c.61,0,.73.77.73.77V14h0Zm0,0h-.43c-.2,0-.31.09-.31.25s.1.25.31.25a.43.43,0,0,0,.34-.1.36.36,0,0,0,.08-.28V14Z"/><path id="Shape-2" data-name="Shape" class="cls-3" d="M24.3,14c-.45.52-1.3-.11-1.3-.11V11h1v2.86a1,1,0,0,0,.4.14h-.1Z"/><path id="Shape-3" data-name="Shape" class="cls-3" d="M25.63,14c-.44.52-1.63-.11-1.63-.11V13h1V12h0v1h0V12h1v1h0v.86c-.46.13-.27.14-.27.14h-.1Z"/><path id="Shape-4" data-name="Shape" class="cls-3" d="M26,12V11h1v1H26Zm0,2V12h1v2H26Z"/><path id="Shape-5" data-name="Shape" class="cls-3" d="M29,14v-.8c-.37-.3-.55-.4-.73-.4s-.27.4-.27.4V14H27V12h1v.53c0-.15.24-.23.44-.23a.71.71,0,0,1,.52.19.43.43,0,0,1,0,.62V14h0Z"/><path id="Shape-6" data-name="Shape" class="cls-3" d="M31,14v-.8a.44.44,0,0,0-.43-.4c-.17,0-1.57.4-1.57.4V14h1V12h0v.53a1.87,1.87,0,0,1,.74-.23.71.71,0,0,1,.52.19c.18.18.22.38-.25.62V14h0Z"/></g><g id="logoelement"><rect id="Rectangle-35" class="cls-3" x="18" y="11" width="2" height="1"/><rect id="Rectangle-35-2" data-name="Rectangle-35" class="cls-3" x="18" y="13" width="2" height="1"/><rect id="Rectangle-35-3" data-name="Rectangle-35" class="cls-3" x="18" y="14" width="2" height="1"/><rect id="Rectangle-35-4" data-name="Rectangle-35" class="cls-3" x="11" y="11" width="1" height="1"/><rect id="Rectangle-35-5" data-name="Rectangle-35" class="cls-3" x="11" y="13" width="1" height="1"/><rect id="Rectangle-35-6" data-name="Rectangle-35" class="cls-3" x="11" y="14" width="1" height="1"/><rect id="Rectangle-35-7" data-name="Rectangle-35" class="cls-3" x="13" y="11" width="1" height="1"/><rect id="Rectangle-35-8" data-name="Rectangle-35" class="cls-3" x="13" y="13" width="1" height="1"/><rect id="Rectangle-35-9" data-name="Rectangle-35" class="cls-3" x="13" y="14" width="1" height="1"/><polygon id="Rectangle-32" class="cls-3" points="14 11 17 11 17 13 16 13 16 12 14 12 14 11"/><rect id="Rectangle-32-2" data-name="Rectangle-32" class="cls-3" x="15" y="13" width="1" height="1"/><polygon id="Rectangle-32-3" data-name="Rectangle-32" class="cls-3" points="14 13 15 13 15 14 17 14 17 15 14 15 14 13"/></g></g></g><circle class="cls-4" cx="106" cy="13" r="2.5" transform="translate(-0.75 9.9) rotate(-5.33)"/><rect x="23" y="32" width="9" height="2"/><rect x="37" y="12" width="9" height="2"/><rect x="50" y="12" width="9" height="2"/><rect x="63" y="12" width="9" height="2"/><rect x="86" y="12" width="8" height="1"/><rect x="95" y="12" width="6" height="1"/><rect x="23" y="58" width="25" height="2"/><rect x="26" y="63" width="18" height="1"/><rect x="36" y="32" width="9" height="2"/><line class="cls-5" x1="33" y1="34" x2="34" y2="32"/><line class="cls-5" x1="46" y1="34" x2="47" y2="32"/><rect x="26" y="66" width="17" height="1"/><rect class="cls-4" x="42.5" y="20.5" width="38" height="6"/><path d="M79.06,25.25a.26.26,0,0,1-.26.26.24.24,0,0,1-.18-.08l-.69-.69a1.42,1.42,0,0,1-1.36.14,1.39,1.39,0,0,1-.76-.76,1.42,1.42,0,0,1,0-1.11,1.39,1.39,0,0,1,.76-.76,1.42,1.42,0,0,1,1.11,0,1.39,1.39,0,0,1,.76.76,1.42,1.42,0,0,1-.14,1.36l.69.69A.25.25,0,0,1,79.06,25.25Zm-1.3-1a.9.9,0,1,0-.64.27A.87.87,0,0,0,77.76,24.21Z"/><rect x="23" y="42" width="13" height="1"/><rect x="23" y="46" width="65" height="1"/><rect x="23" y="49" width="64" height="1"/><rect x="23" y="52" width="56" height="1"/><rect x="23" y="38" width="31" height="2"/><path d="M23.94,63a.1.1,0,0,1,0,.07l-.73.71a.1.1,0,0,1-.15,0,.1.1,0,0,1,0-.07V62.32a.1.1,0,0,1,0-.07.1.1,0,0,1,.15,0l.73.71A.1.1,0,0,1,23.94,63Z"/><path d="M23.94,66.93a.1.1,0,0,1,0,.07l-.73.73a.1.1,0,0,1-.18-.07V66.2a.1.1,0,0,1,.18-.07l.73.73A.1.1,0,0,1,23.94,66.93Z"/><rect class="cls-6" x="59" y="36" width="15" height="5" rx="2" ry="2"/><rect x="63" y="38" width="7" height="0.54"/><rect x="23" y="71" width="41" height="2"/><rect x="23.5" y="76.5" width="74" height="0.01"/><polyline class="cls-7" points="97 76.51 97.5 76.51 97.5 76.5 97 76.5"/><line class="cls-8" x1="96" y1="76.5" x2="24.5" y2="76.5"/><polyline class="cls-7" points="24 76.5 23.5 76.5 23.5 76.51 24 76.51"/><line class="cls-8" x1="25" y1="76.51" x2="96.5" y2="76.51"/><rect x="23.5" y="79.5" width="74" height="0.01"/><polyline class="cls-7" points="97 79.51 97.5 79.51 97.5 79.5 97 79.5"/><line class="cls-8" x1="96" y1="79.5" x2="24.5" y2="79.5"/><polyline class="cls-7" points="24 79.5 23.5 79.5 23.5 79.51 24 79.51"/><line class="cls-8" x1="25" y1="79.51" x2="96.5" y2="79.51"/><rect x="23.5" y="82.5" width="74" height="0.01"/><polyline class="cls-7" points="97 82.51 97.5 82.51 97.5 82.5 97 82.5"/><line class="cls-8" x1="96" y1="82.5" x2="24.5" y2="82.5"/><polyline class="cls-7" points="24 82.5 23.5 82.5 23.5 82.51 24 82.51"/><line class="cls-8" x1="25" y1="82.51" x2="96.5" y2="82.51"/><rect x="23.5" y="85.5" width="74" height="0.01"/><polyline class="cls-7" points="97 85.51 97.5 85.51 97.5 85.5 97 85.5"/><line class="cls-8" x1="96" y1="85.5" x2="24.5" y2="85.5"/><polyline class="cls-7" points="24 85.5 23.5 85.5 23.5 85.51 24 85.51"/><line class="cls-8" x1="25" y1="85.51" x2="96.5" y2="85.51"/></svg>