<svg id="Layer_1" data-name="Layer 1" xmlns="http://www.w3.org/2000/svg" viewBox="0 0 120 90"><defs><style>.cls-1{fill:#0062ba;stroke:#0062ba;stroke-width:0.5px;}.cls-1,.cls-6,.cls-8{stroke-miterlimit:10;}.cls-2{fill:#fff;}.cls-3{fill:#efefef;}.cls-3,.cls-4{fill-rule:evenodd;}.cls-4,.cls-7{fill:#bcc7cc;}.cls-5{fill:#231f20;}.cls-6,.cls-8{fill:none;stroke:#000;}.cls-6{stroke-width:0.75px;}</style></defs><title>Forside</title><rect class="cls-1" width="120" height="90"/><rect class="cls-2" x="5.93" y="6" width="108.07" height="84"/><path class="cls-3" d="M6,6V45H49S19.32,25.88,22.3,6Z"/><path class="cls-3" d="M63.7,45S52.4,13.92,89.57,6H114V45Z"/><path class="cls-4" d="M22.14,5.89S17.42,23.33,48.46,45H63.23S52.19,14.07,88.8,6Z"/><g id="Desktop"><g id="altinn-logo-blue"><g id="altinn"><path id="Shape" class="cls-5" d="M23,14v.33a2.81,2.81,0,0,1-.86.21.75.75,0,0,1-.56-.19.7.7,0,0,1-.18-.49c0-.35.75-.85.75-.85H22v.11c.66-.24.54-.34.25-.34a.47.47,0,0,0-.42.18l-.35-.34a.92.92,0,0,1,.79-.3c.61,0,.73.77.73.77V14h0Zm0,0h-.43c-.2,0-.31.09-.31.25s.1.25.31.25a.43.43,0,0,0,.34-.1.36.36,0,0,0,.08-.28V14Z"/><path id="Shape-2" data-name="Shape" class="cls-5" d="M24.3,14c-.45.52-1.3-.11-1.3-.11V11h1v2.86a1,1,0,0,0,.4.14h-.1Z"/><path id="Shape-3" data-name="Shape" class="cls-5" d="M25.63,14c-.44.52-1.63-.11-1.63-.11V13h1V12h0v1h0V12h1v1h0v.86c-.46.13-.27.14-.27.14h-.1Z"/><path id="Shape-4" data-name="Shape" class="cls-5" d="M26,12V11h1v1H26Zm0,2V12h1v2H26Z"/><path id="Shape-5" data-name="Shape" class="cls-5" d="M29,14v-.8c-.37-.3-.55-.4-.73-.4s-.27.4-.27.4V14H27V12h1v.53c0-.15.24-.23.44-.23a.71.71,0,0,1,.52.19.43.43,0,0,1,0,.62V14h0Z"/><path id="Shape-6" data-name="Shape" class="cls-5" d="M31,14v-.8a.44.44,0,0,0-.43-.4c-.17,0-1.57.4-1.57.4V14h1V12h0v.53a1.87,1.87,0,0,1,.74-.23.71.71,0,0,1,.52.19c.18.18.22.38-.25.62V14h0Z"/></g><g id="logoelement"><rect id="Rectangle-35" class="cls-5" x="18" y="11" width="2" height="1"/><rect id="Rectangle-35-2" data-name="Rectangle-35" class="cls-5" x="18" y="13" width="2" height="1"/><rect id="Rectangle-35-3" data-name="Rectangle-35" class="cls-5" x="18" y="14" width="2" height="1"/><rect id="Rectangle-35-4" data-name="Rectangle-35" class="cls-5" x="11" y="11" width="1" height="1"/><rect id="Rectangle-35-5" data-name="Rectangle-35" class="cls-5" x="11" y="13" width="1" height="1"/><rect id="Rectangle-35-6" data-name="Rectangle-35" class="cls-5" x="11" y="14" width="1" height="1"/><rect id="Rectangle-35-7" data-name="Rectangle-35" class="cls-5" x="13" y="11" width="1" height="1"/><rect id="Rectangle-35-8" data-name="Rectangle-35" class="cls-5" x="13" y="13" width="1" height="1"/><rect id="Rectangle-35-9" data-name="Rectangle-35" class="cls-5" x="13" y="14" width="1" height="1"/><polygon id="Rectangle-32" class="cls-5" points="14 11 17 11 17 13 16 13 16 12 14 12 14 11"/><rect id="Rectangle-32-2" data-name="Rectangle-32" class="cls-5" x="15" y="13" width="1" height="1"/><polygon id="Rectangle-32-3" data-name="Rectangle-32" class="cls-5" points="14 13 15 13 15 14 17 14 17 15 14 15 14 13"/></g></g></g><circle class="cls-6" cx="106" cy="13" r="2.5" transform="translate(-0.75 9.9) rotate(-5.33)"/><rect class="cls-6" x="42.38" y="52.5" width="38.24" height="6"/><path d="M79.06,57.25a.26.26,0,0,1-.26.26.24.24,0,0,1-.18-.08l-.69-.69a1.42,1.42,0,0,1-1.36.14,1.39,1.39,0,0,1-.76-.76,1.42,1.42,0,0,1,0-1.11,1.39,1.39,0,0,1,.76-.76,1.42,1.42,0,0,1,1.11,0,1.39,1.39,0,0,1,.76.76,1.42,1.42,0,0,1-.14,1.36l.69.69A.25.25,0,0,1,79.06,57.25Zm-1.3-1a.9.9,0,1,0-.64.27A.87.87,0,0,0,77.76,56.21Z"/><path class="cls-7" d="M48.74,87a8.13,8.13,0,0,0-6.31,3H55.05A8.13,8.13,0,0,0,48.74,87Z"/><path class="cls-7" d="M74.63,87a8,8,0,0,0-6.23,3H80.87A8,8,0,0,0,74.63,87Z"/><rect class="cls-8" x="33.5" y="33.5" width="17" height="6"/><rect x="54" y="36" width="24" height="0.86"/><rect x="33" y="28" width="22" height="2"/><rect x="33" y="22" width="48" height="3"/><rect x="37" y="12" width="9" height="2"/><rect x="50" y="12" width="9" height="2"/><rect x="63" y="12" width="9" height="2"/><rect x="86" y="12" width="8" height="1"/><rect x="95" y="12" width="6" height="1"/><rect x="42" y="63" width="39" height="2"/><rect x="42" y="68" width="39" height="1"/><rect x="42" y="72" width="39" height="1"/><rect x="42" y="76" width="39" height="1"/><rect x="37" y="36" width="10" height="0.77"/><path class="cls-7" d="M49.06,82.51A7.55,7.55,0,0,0,41.52,90H56.61A7.55,7.55,0,0,0,49.06,82.51Z"/><path class="cls-7" d="M74.45,82.51A7.55,7.55,0,0,0,66.91,90H82A7.55,7.55,0,0,0,74.45,82.51Z"/></svg>