<svg id="Layer_1" data-name="Layer 1" xmlns="http://www.w3.org/2000/svg" viewBox="0 0 120 90"><defs><style>.cls-1{fill:#ffda06;}.cls-2{fill:#fff;}.cls-3{fill:#231f20;}.cls-4,.cls-6,.cls-7{fill:none;}.cls-4,.cls-5,.cls-6,.cls-7{stroke:#000;stroke-miterlimit:10;}.cls-4{stroke-width:0.75px;}.cls-7{stroke-dasharray:0.98 0.98;}</style></defs><title>Artboard 1</title><rect class="cls-1" width="120" height="90"/><rect class="cls-2" x="6" y="6" width="107" height="84"/><g id="Desktop"><g id="altinn-logo-blue"><g id="altinn"><path id="Shape" class="cls-3" d="M23,14v.33a2.81,2.81,0,0,1-.86.21.75.75,0,0,1-.56-.19.7.7,0,0,1-.18-.49c0-.35.75-.85.75-.85H22v.11c.66-.24.54-.34.25-.34a.47.47,0,0,0-.42.18l-.35-.34a.92.92,0,0,1,.79-.3c.61,0,.73.77.73.77V14h0Zm0,0h-.43c-.2,0-.31.09-.31.25s.1.25.31.25a.43.43,0,0,0,.34-.1.36.36,0,0,0,.08-.28V14Z"/><path id="Shape-2" data-name="Shape" class="cls-3" d="M24.3,14c-.45.52-1.3-.11-1.3-.11V11h1v2.86a1,1,0,0,0,.4.14h-.1Z"/><path id="Shape-3" data-name="Shape" class="cls-3" d="M25.63,14c-.44.52-1.63-.11-1.63-.11V13h1V12h0v1h0V12h1v1h0v.86c-.46.13-.27.14-.27.14h-.1Z"/><path id="Shape-4" data-name="Shape" class="cls-3" d="M26,12V11h1v1H26Zm0,2V12h1v2H26Z"/><path id="Shape-5" data-name="Shape" class="cls-3" d="M29,14v-.8c-.37-.3-.55-.4-.73-.4s-.27.4-.27.4V14H27V12h1v.53c0-.15.24-.23.44-.23a.71.71,0,0,1,.52.19.43.43,0,0,1,0,.62V14h0Z"/><path id="Shape-6" data-name="Shape" class="cls-3" d="M31,14v-.8a.44.44,0,0,0-.43-.4c-.17,0-1.57.4-1.57.4V14h1V12h0v.53a1.87,1.87,0,0,1,.74-.23.71.71,0,0,1,.52.19c.18.18.22.38-.25.62V14h0Z"/></g><g id="logoelement"><rect id="Rectangle-35" class="cls-3" x="18" y="11" width="2" height="1"/><rect id="Rectangle-35-2" data-name="Rectangle-35" class="cls-3" x="18" y="13" width="2" height="1"/><rect id="Rectangle-35-3" data-name="Rectangle-35" class="cls-3" x="18" y="14" width="2" height="1"/><rect id="Rectangle-35-4" data-name="Rectangle-35" class="cls-3" x="11" y="11" width="1" height="1"/><rect id="Rectangle-35-5" data-name="Rectangle-35" class="cls-3" x="11" y="13" width="1" height="1"/><rect id="Rectangle-35-6" data-name="Rectangle-35" class="cls-3" x="11" y="14" width="1" height="1"/><rect id="Rectangle-35-7" data-name="Rectangle-35" class="cls-3" x="13" y="11" width="1" height="1"/><rect id="Rectangle-35-8" data-name="Rectangle-35" class="cls-3" x="13" y="13" width="1" height="1"/><rect id="Rectangle-35-9" data-name="Rectangle-35" class="cls-3" x="13" y="14" width="1" height="1"/><polygon id="Rectangle-32" class="cls-3" points="14 11 17 11 17 13 16 13 16 12 14 12 14 11"/><rect id="Rectangle-32-2" data-name="Rectangle-32" class="cls-3" x="15" y="13" width="1" height="1"/><polygon id="Rectangle-32-3" data-name="Rectangle-32" class="cls-3" points="14 13 15 13 15 14 17 14 17 15 14 15 14 13"/></g></g></g><circle class="cls-4" cx="106" cy="13" r="2.5" transform="translate(-0.75 9.9) rotate(-5.33)"/><rect x="23" y="32" width="9" height="2"/><rect x="37" y="12" width="9" height="2"/><rect x="50" y="12" width="9" height="2"/><rect x="63" y="12" width="9" height="2"/><rect x="86" y="12" width="8" height="1"/><rect x="95" y="12" width="6" height="1"/><rect x="36" y="32" width="9" height="2"/><line class="cls-5" x1="33" y1="34" x2="34" y2="32"/><line class="cls-5" x1="46" y1="34" x2="47" y2="32"/><rect class="cls-4" x="42.5" y="20.5" width="38" height="6"/><path d="M79.06,25.25a.26.26,0,0,1-.26.26.24.24,0,0,1-.18-.08l-.69-.69a1.42,1.42,0,0,1-1.36.14,1.39,1.39,0,0,1-.76-.76,1.42,1.42,0,0,1,0-1.11,1.39,1.39,0,0,1,.76-.76,1.42,1.42,0,0,1,1.11,0,1.39,1.39,0,0,1,.76.76,1.42,1.42,0,0,1-.14,1.36l.69.69A.25.25,0,0,1,79.06,25.25Zm-1.3-1a.9.9,0,1,0-.64.27A.87.87,0,0,0,77.76,24.21Z"/><rect x="23" y="48" width="13" height="1"/><rect x="23" y="38" width="31" height="2"/><rect x="49" y="32" width="9" height="2"/><line class="cls-5" x1="59" y1="34" x2="60" y2="32"/><rect x="62" y="32" width="23" height="2"/><rect x="64.5" y="52.5" width="31.5" height="0.01"/><polyline class="cls-6" points="95.5 52.51 96 52.51 96 52.5 95.5 52.5"/><line class="cls-7" x1="94.52" y1="52.5" x2="65.49" y2="52.5"/><polyline class="cls-6" points="65 52.5 64.5 52.5 64.5 52.51 65 52.51"/><line class="cls-7" x1="65.98" y1="52.51" x2="95.01" y2="52.51"/><rect x="64.5" y="55.5" width="31.5" height="0.01"/><polyline class="cls-6" points="95.5 55.51 96 55.51 96 55.5 95.5 55.5"/><line class="cls-7" x1="94.52" y1="55.5" x2="65.49" y2="55.5"/><polyline class="cls-6" points="65 55.5 64.5 55.5 64.5 55.51 65 55.51"/><line class="cls-7" x1="65.98" y1="55.51" x2="95.01" y2="55.51"/><rect x="64.5" y="58.5" width="31.5" height="0.01"/><polyline class="cls-6" points="95.5 58.51 96 58.51 96 58.5 95.5 58.5"/><line class="cls-7" x1="94.52" y1="58.5" x2="65.49" y2="58.5"/><polyline class="cls-6" points="65 58.5 64.5 58.5 64.5 58.51 65 58.51"/><line class="cls-7" x1="65.98" y1="58.51" x2="95.01" y2="58.51"/><rect x="64.5" y="61.5" width="31.5" height="0.01"/><polyline class="cls-6" points="95.5 61.51 96 61.51 96 61.5 95.5 61.5"/><line class="cls-7" x1="94.52" y1="61.5" x2="65.49" y2="61.5"/><polyline class="cls-6" points="65 61.5 64.5 61.5 64.5 61.51 65 61.51"/><line class="cls-7" x1="65.98" y1="61.51" x2="95.01" y2="61.51"/><rect x="64.5" y="64.5" width="31.5" height="0.01"/><polyline class="cls-6" points="95.5 64.51 96 64.51 96 64.5 95.5 64.5"/><line class="cls-7" x1="94.52" y1="64.5" x2="65.49" y2="64.5"/><polyline class="cls-6" points="65 64.5 64.5 64.5 64.5 64.51 65 64.51"/><line class="cls-7" x1="65.98" y1="64.51" x2="95.01" y2="64.51"/><rect x="23.5" y="52.5" width="31.5" height="0.01"/><polyline class="cls-6" points="54.5 52.51 55 52.51 55 52.5 54.5 52.5"/><line class="cls-7" x1="53.52" y1="52.5" x2="24.49" y2="52.5"/><polyline class="cls-6" points="24 52.5 23.5 52.5 23.5 52.51 24 52.51"/><line class="cls-7" x1="24.98" y1="52.51" x2="54.01" y2="52.51"/><rect x="23.5" y="55.5" width="31.5" height="0.01"/><polyline class="cls-6" points="54.5 55.51 55 55.51 55 55.5 54.5 55.5"/><line class="cls-7" x1="53.52" y1="55.5" x2="24.49" y2="55.5"/><polyline class="cls-6" points="24 55.5 23.5 55.5 23.5 55.51 24 55.51"/><line class="cls-7" x1="24.98" y1="55.51" x2="54.01" y2="55.51"/><rect x="23.5" y="58.5" width="31.5" height="0.01"/><polyline class="cls-6" points="54.5 58.51 55 58.51 55 58.5 54.5 58.5"/><line class="cls-7" x1="53.52" y1="58.5" x2="24.49" y2="58.5"/><polyline class="cls-6" points="24 58.5 23.5 58.5 23.5 58.51 24 58.51"/><line class="cls-7" x1="24.98" y1="58.51" x2="54.01" y2="58.51"/><rect x="23.5" y="61.5" width="31.5" height="0.01"/><polyline class="cls-6" points="54.5 61.51 55 61.51 55 61.5 54.5 61.5"/><line class="cls-7" x1="53.52" y1="61.5" x2="24.49" y2="61.5"/><polyline class="cls-6" points="24 61.5 23.5 61.5 23.5 61.51 24 61.51"/><line class="cls-7" x1="24.98" y1="61.51" x2="54.01" y2="61.51"/><rect x="23.5" y="64.5" width="31.5" height="0.01"/><polyline class="cls-6" points="54.5 64.51 55 64.51 55 64.5 54.5 64.5"/><line class="cls-7" x1="53.52" y1="64.5" x2="24.49" y2="64.5"/><polyline class="cls-6" points="24 64.5 23.5 64.5 23.5 64.51 24 64.51"/><line class="cls-7" x1="24.98" y1="64.51" x2="54.01" y2="64.51"/><rect x="23" y="72" width="28" height="1"/><rect x="23" y="76" width="74" height="1"/><rect x="23" y="79" width="71" height="1"/><rect x="23" y="82" width="73" height="1"/><rect x="23" y="85" width="74" height="1"/></svg>